<svg width="735" height="167" viewBox="0 0 735 167" fill="none" xmlns="http://www.w3.org/2000/svg">
<path d="M132.027 43.375C132.527 40.8333 133.443 38.8333 134.777 37.375C136.11 35.875 137.631 34.8542 139.339 34.3125C141.089 33.7708 142.943 33.6458 144.902 33.9375C146.902 34.1875 148.777 34.7917 150.527 35.75C152.318 36.7083 153.881 37.9583 155.214 39.5C156.547 41 157.485 42.7292 158.027 44.6875C158.568 46.6042 158.568 48.6875 158.027 50.9375C157.485 53.1875 156.256 55.5 154.339 57.875C155.839 58.4167 157.235 58.9583 158.527 59.5C159.818 60.0417 160.902 60.7083 161.777 61.5C162.693 62.2917 163.402 63.25 163.902 64.375C164.402 65.5 164.652 66.8958 164.652 68.5625C164.652 69.9375 164.402 71.3958 163.902 72.9375C163.402 74.4792 162.693 76 161.777 77.5C160.902 79 159.86 80.4375 158.652 81.8125C157.485 83.1458 156.214 84.3333 154.839 85.375C153.464 86.4167 152.047 87.25 150.589 87.875C149.172 88.4583 147.777 88.75 146.402 88.75C145.485 88.75 144.589 88.1667 143.714 87C142.839 85.8333 141.985 84.2917 141.152 82.375C140.318 80.4583 139.506 78.25 138.714 75.75C137.922 73.25 137.193 70.6667 136.527 68C135.86 65.2917 135.256 62.625 134.714 60C134.172 57.3333 133.693 54.875 133.277 52.625C132.902 50.375 132.589 48.4375 132.339 46.8125C132.131 45.1458 132.027 44 132.027 43.375ZM143.152 70.4375C143.152 71.1458 143.318 72.0833 143.652 73.25C143.985 74.4167 144.402 75.5833 144.902 76.75C145.443 77.9167 146.027 79 146.652 80C147.277 80.9583 147.943 81.6042 148.652 81.9375C149.235 82.2708 149.922 82.25 150.714 81.875C151.506 81.4583 152.297 80.8333 153.089 80C153.922 79.125 154.714 78.1458 155.464 77.0625C156.214 75.9375 156.881 74.8333 157.464 73.75C158.089 72.6667 158.568 71.6667 158.902 70.75C159.277 69.7917 159.464 69.0625 159.464 68.5625C159.464 67.4792 159.318 66.6042 159.027 65.9375C158.735 65.2292 158.297 64.6667 157.714 64.25C157.172 63.8333 156.506 63.5417 155.714 63.375C154.964 63.2083 154.131 63.125 153.214 63.125C152.172 63.125 151.068 63.2917 149.902 63.625C148.735 63.9583 147.652 64.4375 146.652 65.0625C145.693 65.6875 144.86 66.4583 144.152 67.375C143.485 68.2917 143.152 69.3125 143.152 70.4375ZM139.152 49.1875C139.152 49.9375 139.131 50.875 139.089 52C139.047 53.0833 139.047 54.2083 139.089 55.375C139.131 56.5417 139.256 57.7083 139.464 58.875C139.672 60.0417 140.047 61.0417 140.589 61.875C142.631 61.5 144.402 60.7917 145.902 59.75C147.443 58.7083 148.672 57.5 149.589 56.125C150.547 54.7083 151.235 53.2083 151.652 51.625C152.068 50.0417 152.214 48.5 152.089 47C152.006 45.5 151.652 44.125 151.027 42.875C150.443 41.625 149.61 40.6667 148.527 40C147.443 39.2917 146.131 38.9375 144.589 38.9375C143.047 38.9375 141.277 39.4375 139.277 40.4375C139.277 40.7708 139.256 41.3542 139.214 42.1875C139.214 43.0208 139.193 43.8958 139.152 44.8125C139.152 45.7292 139.152 46.6042 139.152 47.4375C139.152 48.2708 139.152 48.8542 139.152 49.1875ZM195.527 81.9375C193.943 83.0208 192.568 84 191.402 84.875C190.277 85.7083 189.172 86.4167 188.089 87C187.006 87.5833 185.839 88.0208 184.589 88.3125C183.381 88.6042 181.881 88.75 180.089 88.75C176.214 88.75 173.339 87.7292 171.464 85.6875C169.589 83.6042 168.652 80.5208 168.652 76.4375C168.652 74.8542 168.86 73.2083 169.277 71.5C169.693 69.7917 170.297 68.1042 171.089 66.4375C171.922 64.7292 172.902 63.125 174.027 61.625C175.152 60.0833 176.422 58.7292 177.839 57.5625C179.256 56.3958 180.756 55.4792 182.339 54.8125C183.964 54.1042 185.672 53.75 187.464 53.75C190.464 54.0417 192.818 54.7917 194.527 56C196.235 57.1667 197.527 58.6875 198.402 60.5625C199.277 62.3958 199.881 64.4583 200.214 66.75C200.547 69 200.797 71.3333 200.964 73.75C201.172 76.1667 201.422 78.5833 201.714 81C202.006 83.4167 202.61 85.6458 203.527 87.6875C202.985 89.0625 202.464 90.0208 201.964 90.5625C201.506 91.1458 200.985 91.25 200.402 90.875C199.818 90.5 199.131 89.5833 198.339 88.125C197.589 86.6667 196.652 84.6042 195.527 81.9375ZM173.964 76.5625C173.964 78.9375 174.402 80.6875 175.277 81.8125C176.193 82.8958 177.797 83.4375 180.089 83.4375C181.797 83.4375 183.422 83.1458 184.964 82.5625C186.547 81.9375 187.922 81.1042 189.089 80.0625C190.256 78.9792 191.193 77.6875 191.902 76.1875C192.61 74.6875 192.964 73.0208 192.964 71.1875C192.964 70.4375 192.985 69.3958 193.027 68.0625C193.068 66.6875 192.985 65.3333 192.777 64C192.568 62.6667 192.172 61.5208 191.589 60.5625C191.006 59.5625 190.131 59.0625 188.964 59.0625C186.797 59.0625 184.797 59.625 182.964 60.75C181.131 61.8333 179.547 63.2292 178.214 64.9375C176.881 66.6458 175.839 68.5417 175.089 70.625C174.339 72.6667 173.964 74.6458 173.964 76.5625ZM192.027 38.1875L185.277 48.1875C184.777 48.7708 184.277 49.0208 183.777 48.9375C183.277 48.8542 182.881 48.625 182.589 48.25C182.339 47.8333 182.193 47.3333 182.152 46.75C182.152 46.125 182.381 45.5208 182.839 44.9375C182.964 44.8125 183.089 44.6458 183.214 44.4375C183.381 44.1875 183.485 44.0208 183.527 43.9375C183.943 43.2708 184.422 42.5208 184.964 41.6875C185.506 40.8542 186.068 40.0833 186.652 39.375C187.235 38.625 187.797 37.9792 188.339 37.4375C188.922 36.8542 189.464 36.4792 189.964 36.3125C190.464 36.1042 190.881 36.1458 191.214 36.4375C191.589 36.6875 191.86 37.2708 192.027 38.1875ZM207.464 77.3125C207.464 74.7292 208.068 72.3333 209.277 70.125C210.485 67.875 212.068 65.9583 214.027 64.375C216.027 62.75 218.256 61.4792 220.714 60.5625C223.214 59.6458 225.735 59.1875 228.277 59.1875C229.693 59.1875 230.943 59.6458 232.027 60.5625C233.152 61.4792 234.089 62.6042 234.839 63.9375C235.589 65.2292 236.152 66.6042 236.527 68.0625C236.943 69.5208 237.152 70.7917 237.152 71.875C237.152 74.2083 236.589 76.4792 235.464 78.6875C234.339 80.8542 232.881 82.7917 231.089 84.5C229.297 86.1667 227.277 87.5208 225.027 88.5625C222.777 89.6042 220.527 90.125 218.277 90.125C216.277 90.125 214.589 89.7917 213.214 89.125C211.839 88.4167 210.735 87.5 209.902 86.375C209.068 85.2083 208.443 83.8542 208.027 82.3125C207.652 80.7292 207.464 79.0625 207.464 77.3125ZM212.777 77.9375C212.777 79.0208 212.86 79.9792 213.027 80.8125C213.235 81.6042 213.568 82.2917 214.027 82.875C214.527 83.4583 215.172 83.9167 215.964 84.25C216.756 84.5417 217.735 84.6875 218.902 84.6875C220.443 84.6875 221.985 84.2708 223.527 83.4375C225.068 82.5625 226.443 81.4792 227.652 80.1875C228.902 78.8542 229.902 77.3958 230.652 75.8125C231.402 74.2292 231.777 72.6875 231.777 71.1875C231.777 70.5208 231.714 69.7917 231.589 69C231.464 68.2083 231.256 67.4792 230.964 66.8125C230.672 66.1458 230.256 65.5833 229.714 65.125C229.172 64.6667 228.485 64.4375 227.652 64.4375C226.902 64.4375 226.006 64.6875 224.964 65.1875C223.964 65.6875 222.902 66.3333 221.777 67.125C220.693 67.9167 219.61 68.8125 218.527 69.8125C217.485 70.8125 216.527 71.8125 215.652 72.8125C214.777 73.8125 214.068 74.7708 213.527 75.6875C213.027 76.6042 212.777 77.3542 212.777 77.9375ZM267.152 49C267.152 48.1667 267.422 47.625 267.964 47.375C268.547 47.125 269.172 47 269.839 47C269.964 47 270.193 47.0208 270.527 47.0625C270.902 47.1042 271.131 47.125 271.214 47.125C271.339 48.4167 271.464 49.9792 271.589 51.8125C271.714 53.6042 271.86 55.5625 272.027 57.6875C272.193 59.7708 272.402 61.9375 272.652 64.1875C272.902 66.4375 273.256 68.6458 273.714 70.8125C274.172 72.9375 274.735 74.9792 275.402 76.9375C276.068 78.8542 276.881 80.5208 277.839 81.9375C278.047 82.3125 278.235 82.6042 278.402 82.8125C278.61 82.9792 278.797 83.125 278.964 83.25C279.172 83.3333 279.402 83.3958 279.652 83.4375C279.902 83.4375 280.214 83.4375 280.589 83.4375C282.297 83.4375 283.922 83.1458 285.464 82.5625C287.047 81.9792 288.61 81.3333 290.152 80.625C291.693 79.9167 293.256 79.2708 294.839 78.6875C296.422 78.1042 298.089 77.8125 299.839 77.8125C300.214 77.8125 300.693 77.8125 301.277 77.8125C301.86 77.7708 302.402 77.7917 302.902 77.875C303.402 77.9583 303.839 78.1667 304.214 78.5C304.589 78.8333 304.777 79.3333 304.777 80C304.777 80.625 304.214 81.3125 303.089 82.0625C301.964 82.7708 300.527 83.5 298.777 84.25C297.027 84.9583 295.11 85.6667 293.027 86.375C290.985 87.0833 289.006 87.7083 287.089 88.25C285.214 88.7917 283.547 89.2292 282.089 89.5625C280.631 89.8542 279.672 90 279.214 90C277.714 90 276.381 89.5 275.214 88.5C274.089 87.4583 273.089 86.0833 272.214 84.375C271.381 82.625 270.672 80.6458 270.089 78.4375C269.506 76.1875 269.027 73.8542 268.652 71.4375C268.277 69.0208 267.985 66.625 267.777 64.25C267.568 61.875 267.422 59.6667 267.339 57.625C267.256 55.5833 267.193 53.7917 267.152 52.25C267.152 50.7083 267.152 49.625 267.152 49ZM309.839 66.5625C309.839 66.3125 309.839 65.9167 309.839 65.375C309.881 64.7917 309.902 64.1875 309.902 63.5625C309.943 62.9375 309.964 62.3333 309.964 61.75C310.006 61.1667 310.027 60.75 310.027 60.5C310.485 59.8333 311.068 59.2917 311.777 58.875C312.527 58.4583 313.277 58.125 314.027 57.875C314.152 60.125 314.506 62.5208 315.089 65.0625C315.672 67.6042 316.297 70.1667 316.964 72.75C317.631 75.2917 318.214 77.8125 318.714 80.3125C319.256 82.8125 319.527 85.1458 319.527 87.3125C319.527 89.1875 318.568 90.125 316.652 90.125C315.485 90.125 314.506 89.6458 313.714 88.6875C312.922 87.7292 312.277 86.5208 311.777 85.0625C311.318 83.5625 310.943 81.9167 310.652 80.125C310.36 78.2917 310.152 76.5 310.027 74.75C309.943 73 309.881 71.3958 309.839 69.9375C309.839 68.4792 309.839 67.3542 309.839 66.5625ZM310.714 43.125C311.506 43.4583 312.172 44 312.714 44.75C313.256 45.5 313.485 46.1875 313.402 46.8125C313.36 47.3958 312.902 47.8125 312.027 48.0625C311.152 48.2708 309.693 48.0208 307.652 47.3125C307.652 46.1875 307.86 45.2083 308.277 44.375C308.735 43.5417 309.547 43.125 310.714 43.125ZM321.964 72.625C321.964 70.375 322.235 68.125 322.777 65.875C323.318 63.625 324.172 61.6042 325.339 59.8125C326.547 58.0208 328.089 56.5625 329.964 55.4375C331.881 54.3125 334.193 53.75 336.902 53.75C338.443 53.75 339.797 54.0417 340.964 54.625C342.131 55.1667 343.11 55.8958 343.902 56.8125C344.693 57.7292 345.277 58.8125 345.652 60.0625C346.068 61.2708 346.277 62.5417 346.277 63.875C346.277 66 345.777 68.0625 344.777 70.0625C343.818 72.0625 342.506 73.8333 340.839 75.375C339.214 76.875 337.339 78.0208 335.214 78.8125C333.089 79.5625 330.922 79.7292 328.714 79.3125C328.756 80.5208 329.152 81.5 329.902 82.25C330.693 82.9583 331.631 83.5 332.714 83.875C333.797 84.25 334.922 84.5 336.089 84.625C337.256 84.7083 338.297 84.75 339.214 84.75C340.172 84.75 341.068 84.6667 341.902 84.5C342.735 84.3333 343.568 84.1458 344.402 83.9375C345.235 83.7292 346.068 83.5417 346.902 83.375C347.777 83.2083 348.693 83.125 349.652 83.125C350.027 83.125 350.402 83.1458 350.777 83.1875C351.152 83.2292 351.506 83.3333 351.839 83.5C352.172 83.625 352.443 83.8542 352.652 84.1875C352.86 84.4792 352.964 84.8542 352.964 85.3125C352.964 86.1042 352.672 86.7708 352.089 87.3125C351.506 87.8125 350.756 88.25 349.839 88.625C348.964 89 347.985 89.2917 346.902 89.5C345.818 89.6667 344.756 89.8125 343.714 89.9375C342.714 90.0208 341.777 90.0625 340.902 90.0625C340.068 90.1042 339.443 90.125 339.027 90.125C336.36 90.125 333.964 89.7083 331.839 88.875C329.714 88 327.922 86.8125 326.464 85.3125C325.006 83.7708 323.881 81.9375 323.089 79.8125C322.339 77.6458 321.964 75.25 321.964 72.625ZM328.589 68.5625C328.589 70.0208 328.777 71.0833 329.152 71.75C329.568 72.4167 330.547 72.75 332.089 72.75C333.172 72.75 334.235 72.5625 335.277 72.1875C336.318 71.7708 337.256 71.2083 338.089 70.5C338.964 69.7917 339.652 68.9583 340.152 68C340.652 67.0417 340.902 66 340.902 64.875C340.902 64.25 340.839 63.6042 340.714 62.9375C340.631 62.2708 340.422 61.6667 340.089 61.125C339.756 60.5417 339.318 60.0833 338.777 59.75C338.277 59.375 337.61 59.1875 336.777 59.1875C335.527 59.1875 334.381 59.4792 333.339 60.0625C332.339 60.6042 331.485 61.3333 330.777 62.25C330.068 63.125 329.527 64.125 329.152 65.25C328.777 66.3333 328.589 67.4375 328.589 68.5625ZM336.089 28.625C336.922 29.0833 337.777 29.75 338.652 30.625C339.527 31.5 340.402 32.5 341.277 33.625C342.193 34.7083 343.068 35.875 343.902 37.125C344.777 38.3333 345.61 39.5 346.402 40.625C347.193 41.75 347.922 42.7917 348.589 43.75C349.297 44.7083 349.881 45.4375 350.339 45.9375C350.297 46.0208 350.172 46.1875 349.964 46.4375C349.756 46.6875 349.506 46.9583 349.214 47.25C348.922 47.5 348.631 47.7708 348.339 48.0625C348.047 48.3542 347.818 48.5625 347.652 48.6875C347.527 48.6875 347.443 48.6875 347.402 48.6875C347.277 48.7292 347.152 48.75 347.027 48.75C346.86 48.75 346.714 48.7292 346.589 48.6875C346.464 48.6875 346.381 48.6875 346.339 48.6875C345.089 47.8542 344.131 46.875 343.464 45.75C342.797 44.5833 342.172 43.5 341.589 42.5C341.006 41.4583 340.339 40.5833 339.589 39.875C338.839 39.1667 337.777 38.8125 336.402 38.8125C335.527 40.9375 334.839 42.6667 334.339 44C333.839 45.3333 333.422 46.375 333.089 47.125C332.756 47.875 332.443 48.4167 332.152 48.75C331.86 49.0417 331.464 49.2083 330.964 49.25C330.506 49.2917 329.86 49.2708 329.027 49.1875C328.235 49.1042 327.172 49.0625 325.839 49.0625C325.839 48.2708 325.964 47.2708 326.214 46.0625C326.506 44.8542 326.881 43.5625 327.339 42.1875C327.839 40.8125 328.402 39.3958 329.027 37.9375C329.693 36.4792 330.402 35.125 331.152 33.875C331.902 32.625 332.693 31.5417 333.527 30.625C334.402 29.6667 335.256 29 336.089 28.625ZM355.464 63.75C355.464 62.7083 355.631 61.8958 355.964 61.3125C356.339 60.7292 357.11 60.4375 358.277 60.4375C358.402 60.4375 358.631 60.4583 358.964 60.5C359.339 60.5 359.568 60.5 359.652 60.5C359.943 61.7917 360.235 63.2083 360.527 64.75C360.86 66.25 361.235 67.7708 361.652 69.3125C362.068 70.8542 362.527 72.375 363.027 73.875C363.568 75.375 364.214 76.7292 364.964 77.9375C365.714 77.1458 366.256 76.2083 366.589 75.125C366.922 74.0417 367.172 72.9583 367.339 71.875C367.506 70.75 367.652 69.6875 367.777 68.6875C367.943 67.6458 368.256 66.7708 368.714 66.0625C369.172 65.3125 369.839 64.7708 370.714 64.4375C371.631 64.1042 372.881 64.1042 374.464 64.4375C376.214 64.4375 377.61 64.7708 378.652 65.4375C379.693 66.0625 380.589 66.875 381.339 67.875C382.131 68.8333 382.881 69.875 383.589 71C384.339 72.0833 385.277 73.0625 386.402 73.9375C386.652 73.3958 386.964 72.7292 387.339 71.9375C387.714 71.1042 388.172 70.25 388.714 69.375C389.297 68.4583 389.902 67.5625 390.527 66.6875C391.193 65.7708 391.881 64.9583 392.589 64.25C393.297 63.5 394.027 62.8958 394.777 62.4375C395.527 61.9375 396.256 61.6875 396.964 61.6875C398.672 61.6875 400.152 62.2292 401.402 63.3125C402.652 64.3542 403.714 65.6875 404.589 67.3125C405.506 68.8958 406.256 70.6875 406.839 72.6875C407.422 74.6458 407.881 76.5417 408.214 78.375C408.547 80.2083 408.777 81.8958 408.902 83.4375C409.068 84.9375 409.152 86.0208 409.152 86.6875C409.152 87.2292 409.027 87.6458 408.777 87.9375C408.527 88.2292 408.214 88.4583 407.839 88.625C407.464 88.75 407.047 88.8333 406.589 88.875C406.172 88.9167 405.777 88.9375 405.402 88.9375C405.318 88.9375 405.193 88.9375 405.027 88.9375C404.86 88.8958 404.672 88.8542 404.464 88.8125C404.297 88.7708 404.068 88.7083 403.777 88.625L399.714 69.9375C399.714 69.8125 399.547 69.5833 399.214 69.25C398.881 68.875 398.631 68.6458 398.464 68.5625C398.339 68.5625 398.235 68.5417 398.152 68.5C398.068 68.5 398.006 68.5 397.964 68.5C397.922 68.4583 397.881 68.4375 397.839 68.4375C396.964 68.4375 396.131 68.7917 395.339 69.5C394.589 70.2083 393.881 71.1042 393.214 72.1875C392.547 73.2708 391.922 74.4792 391.339 75.8125C390.756 77.1458 390.235 78.4792 389.777 79.8125C389.318 81.1042 388.902 82.3125 388.527 83.4375C388.193 84.5208 387.922 85.3542 387.714 85.9375C387.547 86.0208 387.214 86.1042 386.714 86.1875C386.214 86.2292 385.881 86.25 385.714 86.25C384.547 86.25 383.652 85.8542 383.027 85.0625C382.402 84.2292 381.881 83.2083 381.464 82C381.089 80.7917 380.756 79.4792 380.464 78.0625C380.214 76.6042 379.881 75.2708 379.464 74.0625C379.089 72.8542 378.547 71.8542 377.839 71.0625C377.172 70.2292 376.214 69.8125 374.964 69.8125C374.506 69.8125 374.068 70.2708 373.652 71.1875C373.235 72.1042 372.86 73.2708 372.527 74.6875C372.193 76.0625 371.881 77.5625 371.589 79.1875C371.297 80.7708 371.047 82.2708 370.839 83.6875C370.672 85.0625 370.547 86.2292 370.464 87.1875C370.381 88.1458 370.339 88.625 370.339 88.625C370.256 88.75 370.089 88.8958 369.839 89.0625C369.589 89.1875 369.318 89.3333 369.027 89.5C368.777 89.6667 368.506 89.7917 368.214 89.875C367.964 89.9583 367.777 90 367.652 90C366.485 90 365.36 89.4792 364.277 88.4375C363.193 87.3542 362.193 85.9792 361.277 84.3125C360.402 82.6042 359.589 80.7292 358.839 78.6875C358.131 76.6458 357.527 74.6458 357.027 72.6875C356.527 70.7292 356.131 68.9583 355.839 67.375C355.589 65.7917 355.464 64.5833 355.464 63.75ZM440.527 46.75C440.527 45.9583 440.506 45.1042 440.464 44.1875C440.422 43.2708 440.485 42.4167 440.652 41.625C440.86 40.8333 441.193 40.1875 441.652 39.6875C442.152 39.1458 442.943 38.875 444.027 38.875C444.818 39.9583 445.318 41.3125 445.527 42.9375C445.777 44.5208 445.943 46.2083 446.027 48C446.11 49.75 446.193 51.5 446.277 53.25C446.402 55 446.756 56.5417 447.339 57.875C447.381 58.0417 447.568 58.2917 447.902 58.625C448.277 58.9167 448.527 59.1042 448.652 59.1875C449.902 58.1042 451.027 56.9792 452.027 55.8125C453.068 54.6458 454.089 53.5208 455.089 52.4375C456.089 51.3125 457.089 50.25 458.089 49.25C459.089 48.25 460.172 47.375 461.339 46.625C462.547 45.875 463.881 45.2917 465.339 44.875C466.839 44.4167 468.527 44.1875 470.402 44.1875C470.402 45.1875 470.047 46.1875 469.339 47.1875C468.631 48.1875 467.735 49.2083 466.652 50.25C465.568 51.25 464.381 52.2917 463.089 53.375C461.797 54.4167 460.547 55.5 459.339 56.625C458.131 57.7083 457.047 58.8125 456.089 59.9375C455.131 61.0208 454.443 62.125 454.027 63.25C454.735 63.4167 455.902 63.8333 457.527 64.5C459.193 65.125 461.068 65.9167 463.152 66.875C465.277 67.7917 467.464 68.7917 469.714 69.875C471.964 70.9583 474.027 72.0417 475.902 73.125C477.777 74.1667 479.297 75.1667 480.464 76.125C481.672 77.0417 482.277 77.7917 482.277 78.375C482.277 78.5 482.277 78.7708 482.277 79.1875C482.277 79.5625 482.235 79.9583 482.152 80.375C482.11 80.7917 481.985 81.1667 481.777 81.5C481.568 81.7917 481.235 81.9375 480.777 81.9375C479.027 81.8958 477.381 81.5833 475.839 81C474.297 80.375 472.797 79.625 471.339 78.75C469.881 77.8333 468.422 76.8958 466.964 75.9375C465.547 74.9375 464.089 74 462.589 73.125C461.089 72.2083 459.527 71.4792 457.902 70.9375C456.318 70.3542 454.589 70.0208 452.714 69.9375C452.089 70.9375 451.818 71.9167 451.902 72.875C451.985 73.7917 452.256 74.7292 452.714 75.6875C453.214 76.6042 453.797 77.5625 454.464 78.5625C455.131 79.5208 455.714 80.5417 456.214 81.625C456.714 82.6667 457.047 83.7708 457.214 84.9375C457.381 86.1042 457.193 87.3333 456.652 88.625C456.568 88.75 456.402 88.8958 456.152 89.0625C455.943 89.1875 455.693 89.3333 455.402 89.5C455.152 89.6667 454.881 89.7917 454.589 89.875C454.297 89.9583 454.11 90 454.027 90C453.485 90 452.881 89.4792 452.214 88.4375C451.589 87.3958 450.902 85.9792 450.152 84.1875C449.443 82.3958 448.693 80.3542 447.902 78.0625C447.152 75.7292 446.402 73.3333 445.652 70.875C444.943 68.375 444.277 65.875 443.652 63.375C443.068 60.8333 442.527 58.4792 442.027 56.3125C441.568 54.1042 441.193 52.1667 440.902 50.5C440.652 48.8333 440.527 47.5833 440.527 46.75ZM486.464 49.375C486.464 48.9167 486.506 48.3542 486.589 47.6875C486.714 46.9792 486.902 46.3125 487.152 45.6875C487.443 45.0625 487.797 44.5417 488.214 44.125C488.631 43.6667 489.172 43.4375 489.839 43.4375C489.881 43.4375 489.985 43.4583 490.152 43.5C490.318 43.5417 490.422 43.5625 490.464 43.5625C491.172 46.1458 491.589 48.7083 491.714 51.25C491.839 53.7917 491.797 56.2708 491.589 58.6875C491.381 61.0625 491.068 63.375 490.652 65.625C490.235 67.8333 489.881 69.875 489.589 71.75C489.339 73.625 489.172 75.3125 489.089 76.8125C489.047 78.3125 489.277 79.5833 489.777 80.625C489.693 79.9583 489.631 79.1667 489.589 78.25C489.589 77.2917 489.672 76.3125 489.839 75.3125C490.047 74.3125 490.36 73.3125 490.777 72.3125C491.235 71.3125 491.881 70.4167 492.714 69.625C493.547 68.8333 494.61 68.2083 495.902 67.75C497.235 67.2917 498.881 67.0625 500.839 67.0625C502.881 67.0625 504.631 67.4167 506.089 68.125C507.589 68.8333 508.818 69.8125 509.777 71.0625C510.735 72.2708 511.443 73.7083 511.902 75.375C512.402 77 512.652 78.75 512.652 80.625C512.652 81.5 512.631 82.5 512.589 83.625C512.589 84.7083 512.443 85.7292 512.152 86.6875C511.902 87.6042 511.422 88.3958 510.714 89.0625C510.047 89.6875 509.047 90 507.714 90C507.714 89.3333 507.756 88.4375 507.839 87.3125C507.922 86.1458 507.964 84.9167 507.964 83.625C508.006 82.3333 507.964 81.0208 507.839 79.6875C507.756 78.3542 507.485 77.1667 507.027 76.125C506.568 75.0417 505.922 74.1667 505.089 73.5C504.297 72.7917 503.193 72.4375 501.777 72.4375C501.277 72.4375 500.652 72.4792 499.902 72.5625C499.193 72.6042 498.464 72.7917 497.714 73.125C496.964 73.4583 496.235 73.9792 495.527 74.6875C494.818 75.3542 494.256 76.2917 493.839 77.5C493.422 78.6667 493.172 80.1667 493.089 82C493.047 83.7917 493.277 86 493.777 88.625C493.485 89.375 493.11 89.8125 492.652 89.9375C492.235 90.0625 491.693 90.125 491.027 90.125C489.693 90.125 488.589 89.6667 487.714 88.75C486.881 87.7917 486.235 86.5208 485.777 84.9375C485.318 83.3542 485.006 81.5208 484.839 79.4375C484.714 77.3542 484.672 75.1875 484.714 72.9375C484.756 70.6458 484.86 68.3333 485.027 66C485.235 63.625 485.422 61.3958 485.589 59.3125C485.797 57.1875 485.985 55.2708 486.152 53.5625C486.36 51.8125 486.464 50.4167 486.464 49.375ZM517.777 66.5625C517.777 66.3125 517.777 65.9167 517.777 65.375C517.818 64.7917 517.839 64.1875 517.839 63.5625C517.881 62.9375 517.902 62.3333 517.902 61.75C517.943 61.1667 517.964 60.75 517.964 60.5C518.422 59.8333 519.006 59.2917 519.714 58.875C520.464 58.4583 521.214 58.125 521.964 57.875C522.089 60.125 522.443 62.5208 523.027 65.0625C523.61 67.6042 524.235 70.1667 524.902 72.75C525.568 75.2917 526.152 77.8125 526.652 80.3125C527.193 82.8125 527.464 85.1458 527.464 87.3125C527.464 89.1875 526.506 90.125 524.589 90.125C523.422 90.125 522.443 89.6458 521.652 88.6875C520.86 87.7292 520.214 86.5208 519.714 85.0625C519.256 83.5625 518.881 81.9167 518.589 80.125C518.297 78.2917 518.089 76.5 517.964 74.75C517.881 73 517.818 71.3958 517.777 69.9375C517.777 68.4792 517.777 67.3542 517.777 66.5625ZM518.652 43.125C519.443 43.4583 520.11 44 520.652 44.75C521.193 45.5 521.422 46.1875 521.339 46.8125C521.297 47.3958 520.839 47.8125 519.964 48.0625C519.089 48.2708 517.631 48.0208 515.589 47.3125C515.589 46.1875 515.797 45.2083 516.214 44.375C516.672 43.5417 517.485 43.125 518.652 43.125ZM553.804 51.216C552.737 50.4907 551.649 49.7013 550.54 48.848C549.43 47.952 548.321 47.0133 547.212 46.032C546.102 47.0133 544.993 47.952 543.884 48.848C542.774 49.7013 541.686 50.4907 540.62 51.216H537.484V50.448C538.209 49.6373 538.956 48.784 539.724 47.888C540.534 46.992 541.324 46.0747 542.092 45.136C542.902 44.1547 543.628 43.1947 544.268 42.256H550.156C550.838 43.1947 551.564 44.1547 552.332 45.136C553.1 46.0747 553.868 46.992 554.636 47.888C555.446 48.784 556.214 49.6373 556.94 50.448V51.216H553.804ZM554.444 44.368C555.297 43.3013 556.001 42.32 556.556 41.424C557.11 40.528 557.729 39.3973 558.412 38.032H564.044V38.672C563.105 39.9093 562.081 41.0827 560.972 42.192C559.862 43.2587 558.753 44.24 557.644 45.136H554.444V44.368ZM547.34 55.056C550.284 55.056 552.801 55.696 554.892 56.976C557.025 58.256 558.646 60.0693 559.756 62.416C560.908 64.72 561.484 67.4293 561.484 70.544V73.936H537.996C538.081 77.8187 539.062 80.784 540.94 82.832C542.86 84.8373 545.526 85.84 548.94 85.84C551.116 85.84 553.036 85.648 554.7 85.264C556.406 84.8373 558.156 84.24 559.948 83.472V88.4C558.198 89.168 556.47 89.7227 554.764 90.064C553.057 90.448 551.03 90.64 548.684 90.64C545.441 90.64 542.561 89.9787 540.044 88.656C537.569 87.3333 535.628 85.3707 534.22 82.768C532.854 80.1227 532.172 76.9013 532.172 73.104C532.172 69.3493 532.79 66.128 534.028 63.44C535.308 60.752 537.078 58.6827 539.34 57.232C541.644 55.7813 544.31 55.056 547.34 55.056ZM547.276 59.664C544.588 59.664 542.454 60.5387 540.876 62.288C539.34 63.9947 538.422 66.384 538.124 69.456H555.596C555.596 67.4933 555.297 65.7867 554.7 64.336C554.102 62.8853 553.185 61.7547 551.948 60.944C550.753 60.0907 549.196 59.664 547.276 59.664ZM564.652 58.5C564.652 58.375 564.672 58.2708 564.714 58.1875C564.714 58.1042 564.735 58 564.777 57.875C564.943 57.6667 565.193 57.3958 565.527 57.0625C565.86 56.7292 566.068 56.5625 566.152 56.5625H578.714C578.714 56.1042 578.652 55.375 578.527 54.375C578.402 53.375 578.277 52.2708 578.152 51.0625C578.068 49.8542 578.047 48.6042 578.089 47.3125C578.131 45.9792 578.297 44.7917 578.589 43.75C578.922 42.6667 579.422 41.7917 580.089 41.125C580.797 40.4167 581.777 40.0625 583.027 40.0625C583.027 44.2708 583.318 47.6458 583.902 50.1875C584.485 52.7292 585.256 54.6875 586.214 56.0625C587.214 57.4375 588.339 58.3333 589.589 58.75C590.839 59.1667 592.11 59.3542 593.402 59.3125C594.735 59.2292 596.027 59.0208 597.277 58.6875C598.527 58.3542 599.631 58.125 600.589 58C601.589 57.875 602.381 57.9792 602.964 58.3125C603.547 58.6042 603.839 59.3333 603.839 60.5C603.839 61.375 603.631 62 603.214 62.375C602.839 62.75 602.089 63.0417 600.964 63.25C600.631 63.2917 600.068 63.375 599.277 63.5C598.527 63.5833 597.672 63.6667 596.714 63.75C595.756 63.8333 594.735 63.9375 593.652 64.0625C592.568 64.1458 591.547 64.2292 590.589 64.3125C589.631 64.3958 588.756 64.4583 587.964 64.5C587.172 64.5 586.589 64.5 586.214 64.5C586.214 64.7083 586.193 65.0625 586.152 65.5625C586.11 66.0625 586.089 66.3958 586.089 66.5625C586.089 68.3958 586.381 70.1875 586.964 71.9375C587.547 73.6458 588.172 75.3542 588.839 77.0625C589.547 78.7708 590.193 80.4792 590.777 82.1875C591.36 83.8958 591.652 85.6667 591.652 87.5C591.652 87.8333 591.61 88.1875 591.527 88.5625C591.485 88.8958 591.36 89.2083 591.152 89.5C590.985 89.75 590.714 89.9375 590.339 90.0625C590.006 90.2292 589.527 90.2083 588.902 90C587.318 89.5833 586.131 88.6875 585.339 87.3125C584.589 85.9375 584.027 84.3125 583.652 82.4375C583.277 80.5208 583.027 78.5 582.902 76.375C582.777 74.25 582.568 72.2708 582.277 70.4375C582.027 68.5625 581.61 66.9792 581.027 65.6875C580.443 64.3542 579.506 63.5417 578.214 63.25L566.152 60.5C565.985 60.5 565.735 60.3333 565.402 60C565.068 59.625 564.86 59.3542 564.777 59.1875C564.735 59.1042 564.714 59 564.714 58.875C564.672 58.7917 564.652 58.6667 564.652 58.5Z" fill="#971616"/>
<path d="M177.667 111.301C177.667 110.858 177.726 110.376 177.843 109.855C177.973 109.335 178.149 108.814 178.37 108.293C178.592 107.759 178.859 107.245 179.171 106.75C179.484 106.242 179.835 105.799 180.226 105.422C180.616 105.031 181.04 104.725 181.495 104.504C181.951 104.27 182.433 104.152 182.941 104.152C183.357 104.152 183.748 104.211 184.113 104.328C184.477 104.432 184.79 104.595 185.05 104.816C185.31 105.038 185.512 105.318 185.656 105.656C185.812 105.982 185.89 106.372 185.89 106.828C185.603 106.828 185.369 106.757 185.187 106.613C185.017 106.457 184.855 106.288 184.698 106.105C184.555 105.923 184.392 105.76 184.21 105.617C184.041 105.474 183.82 105.402 183.546 105.402C183.142 105.402 182.752 105.507 182.374 105.715C182.01 105.923 181.665 106.203 181.339 106.555C181.027 106.906 180.747 107.303 180.499 107.746C180.265 108.189 180.057 108.638 179.874 109.094C179.705 109.536 179.568 109.973 179.464 110.402C179.373 110.832 179.327 111.203 179.327 111.516C179.327 112.193 179.425 112.831 179.62 113.43C179.829 114.016 180.122 114.53 180.499 114.973C180.877 115.402 181.346 115.741 181.906 115.988C182.465 116.236 183.103 116.359 183.82 116.359C184.275 116.359 184.705 116.294 185.109 116.164C185.525 116.021 185.922 115.871 186.3 115.715C186.691 115.546 187.075 115.389 187.452 115.246C187.83 115.103 188.208 115.031 188.585 115.031C188.637 115.031 188.709 115.038 188.8 115.051C188.904 115.051 188.995 115.064 189.073 115.09C189.165 115.116 189.243 115.161 189.308 115.227C189.373 115.279 189.406 115.363 189.406 115.48C189.406 115.949 189.223 116.346 188.859 116.672C188.507 116.997 188.084 117.264 187.589 117.473C187.094 117.668 186.58 117.811 186.046 117.902C185.512 117.993 185.076 118.039 184.738 118.039C183.748 118.039 182.823 117.883 181.964 117.57C181.105 117.245 180.356 116.789 179.718 116.203C179.08 115.617 178.579 114.914 178.214 114.094C177.85 113.26 177.667 112.329 177.667 111.301ZM190.792 105.305C190.792 105.161 190.805 104.986 190.831 104.777C190.87 104.556 190.929 104.348 191.007 104.152C191.098 103.957 191.209 103.794 191.339 103.664C191.469 103.521 191.639 103.449 191.847 103.449C191.86 103.449 191.892 103.456 191.945 103.469C191.997 103.482 192.029 103.488 192.042 103.488C192.264 104.296 192.394 105.096 192.433 105.891C192.472 106.685 192.459 107.46 192.394 108.215C192.329 108.957 192.231 109.68 192.101 110.383C191.971 111.073 191.86 111.711 191.769 112.297C191.691 112.883 191.639 113.41 191.613 113.879C191.6 114.348 191.671 114.745 191.827 115.07C191.801 114.862 191.782 114.615 191.769 114.328C191.769 114.029 191.795 113.723 191.847 113.41C191.912 113.098 192.01 112.785 192.14 112.473C192.283 112.16 192.485 111.88 192.745 111.633C193.006 111.385 193.338 111.19 193.741 111.047C194.158 110.904 194.672 110.832 195.284 110.832C195.922 110.832 196.469 110.943 196.925 111.164C197.394 111.385 197.778 111.691 198.077 112.082C198.377 112.46 198.598 112.909 198.741 113.43C198.898 113.938 198.976 114.484 198.976 115.07C198.976 115.344 198.969 115.656 198.956 116.008C198.956 116.346 198.911 116.665 198.82 116.965C198.741 117.251 198.592 117.499 198.37 117.707C198.162 117.902 197.85 118 197.433 118C197.433 117.792 197.446 117.512 197.472 117.16C197.498 116.796 197.511 116.411 197.511 116.008C197.524 115.604 197.511 115.194 197.472 114.777C197.446 114.361 197.361 113.99 197.218 113.664C197.075 113.326 196.873 113.052 196.613 112.844C196.365 112.622 196.02 112.512 195.577 112.512C195.421 112.512 195.226 112.525 194.991 112.551C194.77 112.564 194.542 112.622 194.308 112.727C194.073 112.831 193.846 112.993 193.624 113.215C193.403 113.423 193.227 113.716 193.097 114.094C192.967 114.458 192.889 114.927 192.863 115.5C192.85 116.06 192.921 116.75 193.077 117.57C192.986 117.805 192.869 117.941 192.726 117.98C192.596 118.02 192.426 118.039 192.218 118.039C191.801 118.039 191.456 117.896 191.183 117.609C190.922 117.31 190.721 116.913 190.577 116.418C190.434 115.923 190.337 115.35 190.284 114.699C190.245 114.048 190.232 113.371 190.245 112.668C190.258 111.952 190.291 111.229 190.343 110.5C190.408 109.758 190.467 109.061 190.519 108.41C190.584 107.746 190.642 107.147 190.695 106.613C190.76 106.066 190.792 105.63 190.792 105.305ZM199.757 110.031C199.757 109.953 199.757 109.816 199.757 109.621C199.77 109.413 199.777 109.198 199.777 108.977C199.777 108.755 199.777 108.553 199.777 108.371C199.79 108.176 199.796 108.039 199.796 107.961C199.887 107.805 199.991 107.655 200.109 107.512C200.239 107.355 200.369 107.251 200.499 107.199C200.642 107.134 200.792 107.121 200.948 107.16C201.118 107.199 201.287 107.329 201.456 107.551V107.707V107.961C201.443 108.026 201.417 108.182 201.378 108.43C201.339 108.664 201.294 108.924 201.241 109.211C201.189 109.497 201.137 109.764 201.085 110.012C201.046 110.246 201.027 110.396 201.027 110.461C201.027 110.708 201.053 111.021 201.105 111.398C201.157 111.763 201.228 112.147 201.32 112.551C201.424 112.954 201.547 113.358 201.691 113.762C201.847 114.165 202.029 114.53 202.238 114.855C202.446 115.168 202.674 115.428 202.921 115.637C203.182 115.845 203.481 115.949 203.82 115.949C204.236 115.949 204.601 115.839 204.913 115.617C205.239 115.396 205.519 115.109 205.753 114.758C205.988 114.406 206.176 114.009 206.32 113.566C206.476 113.124 206.6 112.681 206.691 112.238C206.782 111.783 206.847 111.346 206.886 110.93C206.925 110.513 206.945 110.148 206.945 109.836C206.945 109.523 206.919 109.23 206.866 108.957C206.827 108.671 206.775 108.391 206.71 108.117C206.645 107.844 206.587 107.577 206.534 107.316C206.495 107.043 206.476 106.77 206.476 106.496C206.476 106.249 206.56 106.073 206.73 105.969C206.912 105.865 207.114 105.812 207.335 105.812C207.609 105.812 207.83 105.897 207.999 106.066C208.169 106.223 208.299 106.424 208.39 106.672C208.494 106.919 208.559 107.206 208.585 107.531C208.624 107.844 208.644 108.156 208.644 108.469C208.644 108.781 208.637 109.081 208.624 109.367C208.611 109.641 208.605 109.862 208.605 110.031C208.605 110.474 208.572 110.975 208.507 111.535C208.442 112.095 208.325 112.674 208.156 113.273C207.999 113.859 207.797 114.439 207.55 115.012C207.316 115.585 207.023 116.099 206.671 116.555C206.333 116.997 205.935 117.355 205.48 117.629C205.037 117.902 204.536 118.039 203.976 118.039C203.39 118.039 202.876 117.902 202.433 117.629C201.99 117.342 201.613 116.971 201.3 116.516C201.001 116.047 200.747 115.52 200.538 114.934C200.33 114.348 200.167 113.762 200.05 113.176C199.946 112.59 199.868 112.023 199.816 111.477C199.777 110.917 199.757 110.435 199.757 110.031ZM206.281 102.004L204.171 105.129C204.015 105.311 203.859 105.389 203.702 105.363C203.546 105.337 203.422 105.266 203.331 105.148C203.253 105.018 203.208 104.862 203.195 104.68C203.195 104.484 203.266 104.296 203.409 104.113C203.448 104.074 203.488 104.022 203.527 103.957C203.579 103.879 203.611 103.827 203.624 103.801C203.754 103.592 203.904 103.358 204.073 103.098C204.243 102.837 204.419 102.596 204.601 102.375C204.783 102.141 204.959 101.939 205.128 101.77C205.31 101.587 205.48 101.47 205.636 101.418C205.792 101.353 205.922 101.366 206.027 101.457C206.144 101.535 206.228 101.717 206.281 102.004ZM209.796 111.418C209.796 111.079 209.881 110.839 210.05 110.695C210.219 110.539 210.493 110.461 210.87 110.461H211.066C211.105 110.669 211.15 110.91 211.202 111.184C211.254 111.457 211.333 111.737 211.437 112.023C211.541 112.31 211.665 112.577 211.808 112.824C211.951 113.059 212.127 113.247 212.335 113.391C212.348 112.935 212.459 112.499 212.667 112.082C212.889 111.652 213.156 111.275 213.468 110.949C213.794 110.611 214.145 110.331 214.523 110.109C214.913 109.875 215.297 109.719 215.675 109.641H216.105C216.73 109.641 217.264 109.784 217.706 110.07C218.149 110.344 218.514 110.708 218.8 111.164C219.1 111.607 219.327 112.115 219.484 112.688C219.64 113.26 219.757 113.846 219.835 114.445C219.926 115.031 219.978 115.604 219.991 116.164C220.017 116.711 220.031 117.18 220.031 117.57H218.605C218.527 116.789 218.429 116.04 218.312 115.324C218.273 115.038 218.221 114.738 218.156 114.426C218.09 114.1 218.019 113.801 217.941 113.527C217.863 113.241 217.778 112.98 217.687 112.746C217.596 112.499 217.491 112.29 217.374 112.121C217.322 112.069 217.251 111.997 217.159 111.906C217.081 111.815 216.997 111.724 216.906 111.633C216.814 111.542 216.73 111.464 216.652 111.398C216.573 111.333 216.528 111.301 216.515 111.301C216.124 111.197 215.786 111.275 215.499 111.535C215.213 111.783 214.959 112.121 214.738 112.551C214.516 112.98 214.334 113.469 214.191 114.016C214.06 114.562 213.95 115.09 213.859 115.598C213.767 116.092 213.702 116.529 213.663 116.906C213.624 117.271 213.598 117.492 213.585 117.57C213.26 117.805 212.954 117.876 212.667 117.785C212.381 117.681 212.107 117.473 211.847 117.16C211.6 116.848 211.372 116.457 211.163 115.988C210.968 115.52 210.786 115.025 210.616 114.504C210.447 113.97 210.291 113.436 210.148 112.902C210.017 112.368 209.9 111.874 209.796 111.418ZM226.144 128.391C226.873 128.391 227.524 128.254 228.097 127.98C228.67 127.72 229.152 127.355 229.542 126.887C229.946 126.431 230.252 125.904 230.46 125.305C230.682 124.719 230.792 124.107 230.792 123.469C230.792 123.143 230.773 122.714 230.734 122.18C230.708 121.646 230.662 121.066 230.597 120.441C230.532 119.816 230.434 119.178 230.304 118.527C230.187 117.876 230.037 117.264 229.855 116.691C229.672 116.105 229.445 115.598 229.171 115.168C228.911 114.725 228.605 114.413 228.253 114.23C227.915 114.491 227.583 114.732 227.257 114.953C226.932 115.161 226.593 115.337 226.241 115.48C225.89 115.624 225.525 115.741 225.148 115.832C224.77 115.91 224.366 115.949 223.937 115.949C223.377 115.949 222.895 115.897 222.491 115.793C222.101 115.689 221.769 115.513 221.495 115.266C221.235 115.018 221.04 114.693 220.909 114.289C220.779 113.885 220.714 113.378 220.714 112.766C220.714 112.336 220.818 111.919 221.027 111.516C221.235 111.099 221.508 110.715 221.847 110.363C222.198 109.999 222.589 109.667 223.019 109.367C223.462 109.068 223.911 108.807 224.366 108.586C224.835 108.365 225.291 108.195 225.734 108.078C226.189 107.961 226.593 107.902 226.945 107.902C227.283 107.902 227.563 107.915 227.784 107.941C228.006 107.954 228.195 108.007 228.351 108.098C228.507 108.176 228.637 108.306 228.741 108.488C228.859 108.658 228.969 108.892 229.073 109.191C229.373 110.207 229.718 111.301 230.109 112.473C230.499 113.645 230.87 114.849 231.222 116.086C231.573 117.323 231.866 118.566 232.101 119.816C232.348 121.079 232.472 122.297 232.472 123.469C232.472 124.51 232.322 125.389 232.023 126.105C231.736 126.835 231.352 127.427 230.87 127.883C230.402 128.352 229.861 128.71 229.249 128.957C228.65 129.204 228.045 129.361 227.433 129.426C226.821 129.504 226.228 129.523 225.656 129.484C225.083 129.445 224.588 129.367 224.171 129.25C223.754 129.146 223.435 129.022 223.214 128.879C223.006 128.736 222.954 128.612 223.058 128.508C223.175 128.417 223.475 128.352 223.956 128.312C224.438 128.273 225.167 128.299 226.144 128.391ZM226.417 109.543C225.454 109.751 224.672 110.044 224.073 110.422C223.488 110.786 223.045 111.184 222.745 111.613C222.459 112.03 222.303 112.453 222.277 112.883C222.251 113.299 222.329 113.658 222.511 113.957C222.693 114.257 222.954 114.484 223.292 114.641C223.644 114.784 224.041 114.79 224.484 114.66C224.926 114.517 225.395 114.217 225.89 113.762C226.398 113.306 226.906 112.629 227.413 111.73C227.413 111.509 227.413 111.268 227.413 111.008C227.426 110.747 227.407 110.513 227.355 110.305C227.303 110.083 227.205 109.901 227.062 109.758C226.919 109.615 226.704 109.543 226.417 109.543ZM240.988 108.156C240.988 108.117 240.994 108.085 241.007 108.059C241.007 108.033 241.014 108 241.027 107.961C241.079 107.896 241.157 107.811 241.261 107.707C241.365 107.603 241.43 107.551 241.456 107.551H245.382C245.382 107.408 245.363 107.18 245.323 106.867C245.284 106.555 245.245 106.21 245.206 105.832C245.18 105.454 245.174 105.064 245.187 104.66C245.2 104.243 245.252 103.872 245.343 103.547C245.447 103.208 245.603 102.935 245.812 102.727C246.033 102.505 246.339 102.395 246.73 102.395C246.73 103.71 246.821 104.764 247.003 105.559C247.185 106.353 247.426 106.965 247.726 107.395C248.038 107.824 248.39 108.104 248.781 108.234C249.171 108.365 249.568 108.423 249.972 108.41C250.389 108.384 250.792 108.319 251.183 108.215C251.573 108.111 251.919 108.039 252.218 108C252.531 107.961 252.778 107.993 252.96 108.098C253.142 108.189 253.234 108.417 253.234 108.781C253.234 109.055 253.169 109.25 253.038 109.367C252.921 109.484 252.687 109.576 252.335 109.641C252.231 109.654 252.055 109.68 251.808 109.719C251.573 109.745 251.307 109.771 251.007 109.797C250.708 109.823 250.389 109.855 250.05 109.895C249.712 109.921 249.392 109.947 249.093 109.973C248.794 109.999 248.52 110.018 248.273 110.031C248.025 110.031 247.843 110.031 247.726 110.031C247.726 110.096 247.719 110.207 247.706 110.363C247.693 110.52 247.687 110.624 247.687 110.676C247.687 111.249 247.778 111.809 247.96 112.355C248.142 112.889 248.338 113.423 248.546 113.957C248.767 114.491 248.969 115.025 249.152 115.559C249.334 116.092 249.425 116.646 249.425 117.219C249.425 117.323 249.412 117.434 249.386 117.551C249.373 117.655 249.334 117.753 249.269 117.844C249.217 117.922 249.132 117.98 249.015 118.02C248.911 118.072 248.761 118.065 248.566 118C248.071 117.87 247.7 117.59 247.452 117.16C247.218 116.73 247.042 116.223 246.925 115.637C246.808 115.038 246.73 114.406 246.691 113.742C246.652 113.078 246.587 112.46 246.495 111.887C246.417 111.301 246.287 110.806 246.105 110.402C245.922 109.986 245.629 109.732 245.226 109.641L241.456 108.781C241.404 108.781 241.326 108.729 241.222 108.625C241.118 108.508 241.053 108.423 241.027 108.371C241.014 108.345 241.007 108.312 241.007 108.273C240.994 108.247 240.988 108.208 240.988 108.156ZM253.976 114.035C253.976 113.228 254.165 112.479 254.542 111.789C254.92 111.086 255.415 110.487 256.027 109.992C256.652 109.484 257.348 109.087 258.116 108.801C258.898 108.514 259.685 108.371 260.48 108.371C260.922 108.371 261.313 108.514 261.652 108.801C262.003 109.087 262.296 109.439 262.531 109.855C262.765 110.259 262.941 110.689 263.058 111.145C263.188 111.6 263.253 111.997 263.253 112.336C263.253 113.065 263.077 113.775 262.726 114.465C262.374 115.142 261.919 115.747 261.359 116.281C260.799 116.802 260.167 117.225 259.464 117.551C258.761 117.876 258.058 118.039 257.355 118.039C256.73 118.039 256.202 117.935 255.773 117.727C255.343 117.505 254.998 117.219 254.738 116.867C254.477 116.503 254.282 116.079 254.152 115.598C254.034 115.103 253.976 114.582 253.976 114.035ZM255.636 114.23C255.636 114.569 255.662 114.868 255.714 115.129C255.779 115.376 255.883 115.591 256.027 115.773C256.183 115.956 256.385 116.099 256.632 116.203C256.879 116.294 257.185 116.34 257.55 116.34C258.032 116.34 258.514 116.21 258.995 115.949C259.477 115.676 259.907 115.337 260.284 114.934C260.675 114.517 260.988 114.061 261.222 113.566C261.456 113.072 261.573 112.59 261.573 112.121C261.573 111.913 261.554 111.685 261.515 111.438C261.476 111.19 261.411 110.962 261.32 110.754C261.228 110.546 261.098 110.37 260.929 110.227C260.76 110.083 260.545 110.012 260.284 110.012C260.05 110.012 259.77 110.09 259.445 110.246C259.132 110.402 258.8 110.604 258.448 110.852C258.11 111.099 257.771 111.379 257.433 111.691C257.107 112.004 256.808 112.316 256.534 112.629C256.261 112.941 256.04 113.241 255.87 113.527C255.714 113.814 255.636 114.048 255.636 114.23ZM257.98 100.812C258.24 100.956 258.507 101.164 258.781 101.438C259.054 101.711 259.327 102.023 259.601 102.375C259.887 102.714 260.161 103.078 260.421 103.469C260.695 103.846 260.955 104.211 261.202 104.562C261.45 104.914 261.678 105.24 261.886 105.539C262.107 105.839 262.29 106.066 262.433 106.223C262.42 106.249 262.381 106.301 262.316 106.379C262.251 106.457 262.172 106.542 262.081 106.633C261.99 106.711 261.899 106.796 261.808 106.887C261.717 106.978 261.645 107.043 261.593 107.082C261.554 107.082 261.528 107.082 261.515 107.082C261.476 107.095 261.437 107.102 261.398 107.102C261.346 107.102 261.3 107.095 261.261 107.082C261.222 107.082 261.196 107.082 261.183 107.082C260.792 106.822 260.493 106.516 260.284 106.164C260.076 105.799 259.881 105.461 259.698 105.148C259.516 104.823 259.308 104.549 259.073 104.328C258.839 104.107 258.507 103.996 258.077 103.996C257.804 104.66 257.589 105.201 257.433 105.617C257.277 106.034 257.146 106.359 257.042 106.594C256.938 106.828 256.84 106.997 256.749 107.102C256.658 107.193 256.534 107.245 256.378 107.258C256.235 107.271 256.033 107.264 255.773 107.238C255.525 107.212 255.193 107.199 254.777 107.199C254.777 106.952 254.816 106.639 254.894 106.262C254.985 105.884 255.102 105.48 255.245 105.051C255.402 104.621 255.577 104.178 255.773 103.723C255.981 103.267 256.202 102.844 256.437 102.453C256.671 102.062 256.919 101.724 257.179 101.438C257.452 101.138 257.719 100.93 257.98 100.812ZM264.835 110.676C264.835 110.598 264.835 110.474 264.835 110.305C264.848 110.122 264.855 109.934 264.855 109.738C264.868 109.543 264.874 109.354 264.874 109.172C264.887 108.99 264.894 108.859 264.894 108.781C265.037 108.573 265.219 108.404 265.441 108.273C265.675 108.143 265.909 108.039 266.144 107.961C266.183 108.664 266.294 109.413 266.476 110.207C266.658 111.001 266.853 111.802 267.062 112.609C267.27 113.404 267.452 114.191 267.609 114.973C267.778 115.754 267.863 116.483 267.863 117.16C267.863 117.746 267.563 118.039 266.964 118.039C266.6 118.039 266.294 117.889 266.046 117.59C265.799 117.29 265.597 116.913 265.441 116.457C265.297 115.988 265.18 115.474 265.089 114.914C264.998 114.341 264.933 113.781 264.894 113.234C264.868 112.688 264.848 112.186 264.835 111.73C264.835 111.275 264.835 110.923 264.835 110.676ZM265.109 103.352C265.356 103.456 265.564 103.625 265.734 103.859C265.903 104.094 265.975 104.309 265.948 104.504C265.935 104.686 265.792 104.816 265.519 104.895C265.245 104.96 264.79 104.882 264.152 104.66C264.152 104.309 264.217 104.003 264.347 103.742C264.49 103.482 264.744 103.352 265.109 103.352ZM277.198 108.156C277.198 108.117 277.205 108.085 277.218 108.059C277.218 108.033 277.225 108 277.238 107.961C277.29 107.896 277.368 107.811 277.472 107.707C277.576 107.603 277.641 107.551 277.667 107.551H281.593C281.593 107.408 281.573 107.18 281.534 106.867C281.495 106.555 281.456 106.21 281.417 105.832C281.391 105.454 281.385 105.064 281.398 104.66C281.411 104.243 281.463 103.872 281.554 103.547C281.658 103.208 281.814 102.935 282.023 102.727C282.244 102.505 282.55 102.395 282.941 102.395C282.941 103.71 283.032 104.764 283.214 105.559C283.396 106.353 283.637 106.965 283.937 107.395C284.249 107.824 284.601 108.104 284.991 108.234C285.382 108.365 285.779 108.423 286.183 108.41C286.6 108.384 287.003 108.319 287.394 108.215C287.784 108.111 288.129 108.039 288.429 108C288.741 107.961 288.989 107.993 289.171 108.098C289.353 108.189 289.445 108.417 289.445 108.781C289.445 109.055 289.379 109.25 289.249 109.367C289.132 109.484 288.898 109.576 288.546 109.641C288.442 109.654 288.266 109.68 288.019 109.719C287.784 109.745 287.517 109.771 287.218 109.797C286.919 109.823 286.6 109.855 286.261 109.895C285.922 109.921 285.603 109.947 285.304 109.973C285.004 109.999 284.731 110.018 284.484 110.031C284.236 110.031 284.054 110.031 283.937 110.031C283.937 110.096 283.93 110.207 283.917 110.363C283.904 110.52 283.898 110.624 283.898 110.676C283.898 111.249 283.989 111.809 284.171 112.355C284.353 112.889 284.549 113.423 284.757 113.957C284.978 114.491 285.18 115.025 285.363 115.559C285.545 116.092 285.636 116.646 285.636 117.219C285.636 117.323 285.623 117.434 285.597 117.551C285.584 117.655 285.545 117.753 285.48 117.844C285.428 117.922 285.343 117.98 285.226 118.02C285.122 118.072 284.972 118.065 284.777 118C284.282 117.87 283.911 117.59 283.663 117.16C283.429 116.73 283.253 116.223 283.136 115.637C283.019 115.038 282.941 114.406 282.902 113.742C282.863 113.078 282.797 112.46 282.706 111.887C282.628 111.301 282.498 110.806 282.316 110.402C282.133 109.986 281.84 109.732 281.437 109.641L277.667 108.781C277.615 108.781 277.537 108.729 277.433 108.625C277.329 108.508 277.264 108.423 277.238 108.371C277.225 108.345 277.218 108.312 277.218 108.273C277.205 108.247 277.198 108.208 277.198 108.156ZM290.187 109.797C290.187 109.68 290.193 109.562 290.206 109.445C290.219 109.315 290.245 109.204 290.284 109.113C290.323 109.009 290.382 108.924 290.46 108.859C290.551 108.794 290.675 108.762 290.831 108.762C290.962 108.762 291.105 108.866 291.261 109.074C291.43 109.27 291.6 109.523 291.769 109.836C291.938 110.135 292.101 110.467 292.257 110.832C292.426 111.197 292.57 111.535 292.687 111.848C292.817 112.147 292.921 112.408 292.999 112.629C293.077 112.85 293.123 112.967 293.136 112.98C293.305 112.525 293.494 112.03 293.702 111.496C293.911 110.962 294.165 110.467 294.464 110.012C294.777 109.543 295.141 109.152 295.558 108.84C295.988 108.527 296.508 108.371 297.12 108.371C297.433 108.371 297.726 108.423 297.999 108.527C298.286 108.618 298.533 108.762 298.741 108.957C298.963 109.139 299.139 109.361 299.269 109.621C299.399 109.882 299.464 110.181 299.464 110.52C299.464 110.806 299.347 111.008 299.113 111.125C298.891 111.242 298.637 111.301 298.351 111.301H298.156L297.316 110.461C297.29 110.461 297.27 110.454 297.257 110.441C297.231 110.441 297.205 110.441 297.179 110.441C297.166 110.428 297.146 110.422 297.12 110.422C296.665 110.422 296.307 110.552 296.046 110.812C295.799 111.06 295.61 111.372 295.48 111.75C295.35 112.115 295.265 112.505 295.226 112.922C295.2 113.326 295.187 113.697 295.187 114.035C295.187 114.296 295.213 114.562 295.265 114.836C295.317 115.096 295.376 115.357 295.441 115.617C295.506 115.865 295.564 116.125 295.616 116.398C295.669 116.659 295.695 116.932 295.695 117.219C295.695 117.766 295.402 118.039 294.816 118.039C294.49 118.039 294.152 117.87 293.8 117.531C293.448 117.18 293.097 116.737 292.745 116.203C292.407 115.669 292.081 115.083 291.769 114.445C291.456 113.794 291.183 113.163 290.948 112.551C290.714 111.939 290.525 111.385 290.382 110.891C290.252 110.396 290.187 110.031 290.187 109.797ZM300.167 110.031C300.167 109.953 300.167 109.816 300.167 109.621C300.18 109.413 300.187 109.198 300.187 108.977C300.187 108.755 300.187 108.553 300.187 108.371C300.2 108.176 300.206 108.039 300.206 107.961C300.297 107.805 300.402 107.655 300.519 107.512C300.649 107.355 300.779 107.251 300.909 107.199C301.053 107.134 301.202 107.121 301.359 107.16C301.528 107.199 301.697 107.329 301.866 107.551V107.707V107.961C301.853 108.026 301.827 108.182 301.788 108.43C301.749 108.664 301.704 108.924 301.652 109.211C301.6 109.497 301.547 109.764 301.495 110.012C301.456 110.246 301.437 110.396 301.437 110.461C301.437 110.708 301.463 111.021 301.515 111.398C301.567 111.763 301.639 112.147 301.73 112.551C301.834 112.954 301.958 113.358 302.101 113.762C302.257 114.165 302.439 114.53 302.648 114.855C302.856 115.168 303.084 115.428 303.331 115.637C303.592 115.845 303.891 115.949 304.23 115.949C304.646 115.949 305.011 115.839 305.323 115.617C305.649 115.396 305.929 115.109 306.163 114.758C306.398 114.406 306.587 114.009 306.73 113.566C306.886 113.124 307.01 112.681 307.101 112.238C307.192 111.783 307.257 111.346 307.296 110.93C307.335 110.513 307.355 110.148 307.355 109.836C307.355 109.523 307.329 109.23 307.277 108.957C307.238 108.671 307.185 108.391 307.12 108.117C307.055 107.844 306.997 107.577 306.945 107.316C306.906 107.043 306.886 106.77 306.886 106.496C306.886 106.249 306.971 106.073 307.14 105.969C307.322 105.865 307.524 105.812 307.745 105.812C308.019 105.812 308.24 105.897 308.409 106.066C308.579 106.223 308.709 106.424 308.8 106.672C308.904 106.919 308.969 107.206 308.995 107.531C309.034 107.844 309.054 108.156 309.054 108.469C309.054 108.781 309.047 109.081 309.034 109.367C309.021 109.641 309.015 109.862 309.015 110.031C309.015 110.474 308.982 110.975 308.917 111.535C308.852 112.095 308.735 112.674 308.566 113.273C308.409 113.859 308.208 114.439 307.96 115.012C307.726 115.585 307.433 116.099 307.081 116.555C306.743 116.997 306.346 117.355 305.89 117.629C305.447 117.902 304.946 118.039 304.386 118.039C303.8 118.039 303.286 117.902 302.843 117.629C302.4 117.342 302.023 116.971 301.71 116.516C301.411 116.047 301.157 115.52 300.948 114.934C300.74 114.348 300.577 113.762 300.46 113.176C300.356 112.59 300.278 112.023 300.226 111.477C300.187 110.917 300.167 110.435 300.167 110.031ZM310.206 111.418C310.206 111.079 310.291 110.839 310.46 110.695C310.629 110.539 310.903 110.461 311.281 110.461H311.476C311.515 110.669 311.56 110.91 311.613 111.184C311.665 111.457 311.743 111.737 311.847 112.023C311.951 112.31 312.075 112.577 312.218 112.824C312.361 113.059 312.537 113.247 312.745 113.391C312.758 112.935 312.869 112.499 313.077 112.082C313.299 111.652 313.566 111.275 313.878 110.949C314.204 110.611 314.555 110.331 314.933 110.109C315.323 109.875 315.708 109.719 316.085 109.641H316.515C317.14 109.641 317.674 109.784 318.116 110.07C318.559 110.344 318.924 110.708 319.21 111.164C319.51 111.607 319.738 112.115 319.894 112.688C320.05 113.26 320.167 113.846 320.245 114.445C320.337 115.031 320.389 115.604 320.402 116.164C320.428 116.711 320.441 117.18 320.441 117.57H319.015C318.937 116.789 318.839 116.04 318.722 115.324C318.683 115.038 318.631 114.738 318.566 114.426C318.501 114.1 318.429 113.801 318.351 113.527C318.273 113.241 318.188 112.98 318.097 112.746C318.006 112.499 317.902 112.29 317.784 112.121C317.732 112.069 317.661 111.997 317.57 111.906C317.491 111.815 317.407 111.724 317.316 111.633C317.225 111.542 317.14 111.464 317.062 111.398C316.984 111.333 316.938 111.301 316.925 111.301C316.534 111.197 316.196 111.275 315.909 111.535C315.623 111.783 315.369 112.121 315.148 112.551C314.926 112.98 314.744 113.469 314.601 114.016C314.471 114.562 314.36 115.09 314.269 115.598C314.178 116.092 314.113 116.529 314.073 116.906C314.034 117.271 314.008 117.492 313.995 117.57C313.67 117.805 313.364 117.876 313.077 117.785C312.791 117.681 312.517 117.473 312.257 117.16C312.01 116.848 311.782 116.457 311.573 115.988C311.378 115.52 311.196 115.025 311.027 114.504C310.857 113.97 310.701 113.436 310.558 112.902C310.428 112.368 310.31 111.874 310.206 111.418ZM326.554 128.391C327.283 128.391 327.934 128.254 328.507 127.98C329.08 127.72 329.562 127.355 329.952 126.887C330.356 126.431 330.662 125.904 330.87 125.305C331.092 124.719 331.202 124.107 331.202 123.469C331.202 123.143 331.183 122.714 331.144 122.18C331.118 121.646 331.072 121.066 331.007 120.441C330.942 119.816 330.844 119.178 330.714 118.527C330.597 117.876 330.447 117.264 330.265 116.691C330.083 116.105 329.855 115.598 329.581 115.168C329.321 114.725 329.015 114.413 328.663 114.23C328.325 114.491 327.993 114.732 327.667 114.953C327.342 115.161 327.003 115.337 326.652 115.48C326.3 115.624 325.935 115.741 325.558 115.832C325.18 115.91 324.777 115.949 324.347 115.949C323.787 115.949 323.305 115.897 322.902 115.793C322.511 115.689 322.179 115.513 321.906 115.266C321.645 115.018 321.45 114.693 321.32 114.289C321.189 113.885 321.124 113.378 321.124 112.766C321.124 112.336 321.228 111.919 321.437 111.516C321.645 111.099 321.919 110.715 322.257 110.363C322.609 109.999 322.999 109.667 323.429 109.367C323.872 109.068 324.321 108.807 324.777 108.586C325.245 108.365 325.701 108.195 326.144 108.078C326.6 107.961 327.003 107.902 327.355 107.902C327.693 107.902 327.973 107.915 328.195 107.941C328.416 107.954 328.605 108.007 328.761 108.098C328.917 108.176 329.047 108.306 329.152 108.488C329.269 108.658 329.379 108.892 329.484 109.191C329.783 110.207 330.128 111.301 330.519 112.473C330.909 113.645 331.281 114.849 331.632 116.086C331.984 117.323 332.277 118.566 332.511 119.816C332.758 121.079 332.882 122.297 332.882 123.469C332.882 124.51 332.732 125.389 332.433 126.105C332.146 126.835 331.762 127.427 331.281 127.883C330.812 128.352 330.271 128.71 329.659 128.957C329.06 129.204 328.455 129.361 327.843 129.426C327.231 129.504 326.639 129.523 326.066 129.484C325.493 129.445 324.998 129.367 324.581 129.25C324.165 129.146 323.846 129.022 323.624 128.879C323.416 128.736 323.364 128.612 323.468 128.508C323.585 128.417 323.885 128.352 324.366 128.312C324.848 128.273 325.577 128.299 326.554 128.391ZM326.827 109.543C325.864 109.751 325.083 110.044 324.484 110.422C323.898 110.786 323.455 111.184 323.156 111.613C322.869 112.03 322.713 112.453 322.687 112.883C322.661 113.299 322.739 113.658 322.921 113.957C323.103 114.257 323.364 114.484 323.702 114.641C324.054 114.784 324.451 114.79 324.894 114.66C325.337 114.517 325.805 114.217 326.3 113.762C326.808 113.306 327.316 112.629 327.823 111.73C327.823 111.509 327.823 111.268 327.823 111.008C327.837 110.747 327.817 110.513 327.765 110.305C327.713 110.083 327.615 109.901 327.472 109.758C327.329 109.615 327.114 109.543 326.827 109.543ZM341.398 108.156C341.398 108.117 341.404 108.085 341.417 108.059C341.417 108.033 341.424 108 341.437 107.961C341.489 107.896 341.567 107.811 341.671 107.707C341.775 107.603 341.84 107.551 341.866 107.551H345.792C345.792 107.408 345.773 107.18 345.734 106.867C345.695 106.555 345.656 106.21 345.616 105.832C345.59 105.454 345.584 105.064 345.597 104.66C345.61 104.243 345.662 103.872 345.753 103.547C345.857 103.208 346.014 102.935 346.222 102.727C346.443 102.505 346.749 102.395 347.14 102.395C347.14 103.71 347.231 104.764 347.413 105.559C347.596 106.353 347.837 106.965 348.136 107.395C348.448 107.824 348.8 108.104 349.191 108.234C349.581 108.365 349.978 108.423 350.382 108.41C350.799 108.384 351.202 108.319 351.593 108.215C351.984 108.111 352.329 108.039 352.628 108C352.941 107.961 353.188 107.993 353.37 108.098C353.553 108.189 353.644 108.417 353.644 108.781C353.644 109.055 353.579 109.25 353.448 109.367C353.331 109.484 353.097 109.576 352.745 109.641C352.641 109.654 352.465 109.68 352.218 109.719C351.984 109.745 351.717 109.771 351.417 109.797C351.118 109.823 350.799 109.855 350.46 109.895C350.122 109.921 349.803 109.947 349.503 109.973C349.204 109.999 348.93 110.018 348.683 110.031C348.435 110.031 348.253 110.031 348.136 110.031C348.136 110.096 348.129 110.207 348.116 110.363C348.103 110.52 348.097 110.624 348.097 110.676C348.097 111.249 348.188 111.809 348.37 112.355C348.553 112.889 348.748 113.423 348.956 113.957C349.178 114.491 349.379 115.025 349.562 115.559C349.744 116.092 349.835 116.646 349.835 117.219C349.835 117.323 349.822 117.434 349.796 117.551C349.783 117.655 349.744 117.753 349.679 117.844C349.627 117.922 349.542 117.98 349.425 118.02C349.321 118.072 349.171 118.065 348.976 118C348.481 117.87 348.11 117.59 347.863 117.16C347.628 116.73 347.452 116.223 347.335 115.637C347.218 115.038 347.14 114.406 347.101 113.742C347.062 113.078 346.997 112.46 346.906 111.887C346.827 111.301 346.697 110.806 346.515 110.402C346.333 109.986 346.04 109.732 345.636 109.641L341.866 108.781C341.814 108.781 341.736 108.729 341.632 108.625C341.528 108.508 341.463 108.423 341.437 108.371C341.424 108.345 341.417 108.312 341.417 108.273C341.404 108.247 341.398 108.208 341.398 108.156ZM354.952 105.305C354.952 105.161 354.965 104.986 354.991 104.777C355.031 104.556 355.089 104.348 355.167 104.152C355.258 103.957 355.369 103.794 355.499 103.664C355.629 103.521 355.799 103.449 356.007 103.449C356.02 103.449 356.053 103.456 356.105 103.469C356.157 103.482 356.189 103.488 356.202 103.488C356.424 104.296 356.554 105.096 356.593 105.891C356.632 106.685 356.619 107.46 356.554 108.215C356.489 108.957 356.391 109.68 356.261 110.383C356.131 111.073 356.02 111.711 355.929 112.297C355.851 112.883 355.799 113.41 355.773 113.879C355.76 114.348 355.831 114.745 355.988 115.07C355.962 114.862 355.942 114.615 355.929 114.328C355.929 114.029 355.955 113.723 356.007 113.41C356.072 113.098 356.17 112.785 356.3 112.473C356.443 112.16 356.645 111.88 356.906 111.633C357.166 111.385 357.498 111.19 357.902 111.047C358.318 110.904 358.833 110.832 359.445 110.832C360.083 110.832 360.629 110.943 361.085 111.164C361.554 111.385 361.938 111.691 362.238 112.082C362.537 112.46 362.758 112.909 362.902 113.43C363.058 113.938 363.136 114.484 363.136 115.07C363.136 115.344 363.129 115.656 363.116 116.008C363.116 116.346 363.071 116.665 362.98 116.965C362.902 117.251 362.752 117.499 362.531 117.707C362.322 117.902 362.01 118 361.593 118C361.593 117.792 361.606 117.512 361.632 117.16C361.658 116.796 361.671 116.411 361.671 116.008C361.684 115.604 361.671 115.194 361.632 114.777C361.606 114.361 361.521 113.99 361.378 113.664C361.235 113.326 361.033 113.052 360.773 112.844C360.525 112.622 360.18 112.512 359.738 112.512C359.581 112.512 359.386 112.525 359.152 112.551C358.93 112.564 358.702 112.622 358.468 112.727C358.234 112.831 358.006 112.993 357.784 113.215C357.563 113.423 357.387 113.716 357.257 114.094C357.127 114.458 357.049 114.927 357.023 115.5C357.01 116.06 357.081 116.75 357.238 117.57C357.146 117.805 357.029 117.941 356.886 117.98C356.756 118.02 356.587 118.039 356.378 118.039C355.962 118.039 355.616 117.896 355.343 117.609C355.083 117.31 354.881 116.913 354.738 116.418C354.594 115.923 354.497 115.35 354.445 114.699C354.406 114.048 354.392 113.371 354.406 112.668C354.419 111.952 354.451 111.229 354.503 110.5C354.568 109.758 354.627 109.061 354.679 108.41C354.744 107.746 354.803 107.147 354.855 106.613C354.92 106.066 354.952 105.63 354.952 105.305ZM377.687 105.84C377.607 106.307 377.487 106.76 377.327 107.2C377.18 107.64 376.973 108.04 376.707 108.4C376.453 108.747 376.12 109.04 375.707 109.28C375.293 109.507 374.787 109.653 374.187 109.72V118H372.747L372.487 116.58H372.407C372.18 116.953 371.887 117.26 371.527 117.5C371.18 117.74 370.793 117.913 370.367 118.02C369.94 118.14 369.5 118.2 369.047 118.2C368.18 118.2 367.453 118.067 366.867 117.8C366.28 117.52 365.84 117.093 365.547 116.52C365.253 115.947 365.107 115.207 365.107 114.3V107.3H366.887V114.18C366.887 115.033 367.08 115.673 367.467 116.1C367.853 116.527 368.453 116.74 369.267 116.74C370.453 116.74 371.273 116.407 371.727 115.74C372.193 115.073 372.427 114.113 372.427 112.86V107.3H374.187V108.48C374.613 108.4 374.933 108.233 375.147 107.98C375.36 107.727 375.5 107.4 375.567 107C375.647 106.587 375.687 106.127 375.687 105.62H377.547L377.687 105.84ZM369.367 121.52C369.087 121.52 368.84 121.427 368.627 121.24C368.427 121.053 368.327 120.773 368.327 120.4C368.327 120.013 368.427 119.727 368.627 119.54C368.84 119.367 369.087 119.28 369.367 119.28C369.647 119.28 369.887 119.367 370.087 119.54C370.3 119.727 370.407 120.013 370.407 120.4C370.407 120.773 370.3 121.053 370.087 121.24C369.887 121.427 369.647 121.52 369.367 121.52ZM377.003 112.121C377.003 111.574 377.12 111.001 377.355 110.402C377.602 109.803 377.928 109.263 378.331 108.781C378.735 108.286 379.197 107.876 379.718 107.551C380.252 107.225 380.812 107.062 381.398 107.062C381.697 107.062 381.997 107.115 382.296 107.219C382.596 107.323 382.863 107.473 383.097 107.668C383.344 107.863 383.54 108.098 383.683 108.371C383.839 108.645 383.917 108.951 383.917 109.289C383.683 109.289 383.468 109.263 383.273 109.211C383.09 109.159 382.908 109.1 382.726 109.035C382.544 108.957 382.361 108.892 382.179 108.84C382.01 108.788 381.821 108.762 381.613 108.762C381.079 108.762 380.642 108.898 380.304 109.172C379.978 109.432 379.718 109.764 379.523 110.168C379.327 110.572 379.191 111.008 379.113 111.477C379.047 111.932 379.015 112.362 379.015 112.766C379.015 112.831 379.015 112.954 379.015 113.137C379.028 113.319 379.034 113.514 379.034 113.723C379.047 113.918 379.054 114.107 379.054 114.289C379.067 114.471 379.08 114.595 379.093 114.66C379.236 114.973 379.373 115.214 379.503 115.383C379.646 115.552 379.796 115.682 379.952 115.773C380.109 115.852 380.278 115.904 380.46 115.93C380.642 115.943 380.857 115.949 381.105 115.949C381.443 115.949 381.736 115.897 381.984 115.793C382.244 115.689 382.485 115.565 382.706 115.422C382.928 115.279 383.136 115.122 383.331 114.953C383.527 114.771 383.728 114.608 383.937 114.465C384.158 114.309 384.392 114.185 384.64 114.094C384.9 113.99 385.193 113.938 385.519 113.938C385.519 114.576 385.402 115.142 385.167 115.637C384.946 116.132 384.627 116.555 384.21 116.906C383.807 117.258 383.325 117.531 382.765 117.727C382.218 117.909 381.619 118 380.968 118C380.356 118 379.803 117.792 379.308 117.375C378.826 116.958 378.409 116.451 378.058 115.852C377.719 115.24 377.459 114.595 377.277 113.918C377.094 113.241 377.003 112.642 377.003 112.121ZM389.288 115.031C389.432 115.031 389.549 115.064 389.64 115.129C389.744 115.194 389.816 115.279 389.855 115.383C389.894 115.474 389.92 115.585 389.933 115.715C389.946 115.832 389.952 115.949 389.952 116.066C389.952 116.34 389.92 116.665 389.855 117.043C389.803 117.408 389.718 117.792 389.601 118.195C389.484 118.599 389.334 118.996 389.152 119.387C388.982 119.79 388.781 120.142 388.546 120.441C388.312 120.754 388.045 121.001 387.745 121.184C387.459 121.379 387.14 121.477 386.788 121.477C386.788 121.203 386.814 120.852 386.866 120.422C386.932 119.992 387.016 119.536 387.12 119.055C387.238 118.573 387.374 118.098 387.531 117.629C387.687 117.147 387.856 116.717 388.038 116.34C388.221 115.949 388.416 115.637 388.624 115.402C388.833 115.155 389.054 115.031 389.288 115.031ZM399.757 112.121C399.757 111.574 399.874 111.001 400.109 110.402C400.356 109.803 400.682 109.263 401.085 108.781C401.489 108.286 401.951 107.876 402.472 107.551C403.006 107.225 403.566 107.062 404.152 107.062C404.451 107.062 404.751 107.115 405.05 107.219C405.35 107.323 405.616 107.473 405.851 107.668C406.098 107.863 406.294 108.098 406.437 108.371C406.593 108.645 406.671 108.951 406.671 109.289C406.437 109.289 406.222 109.263 406.027 109.211C405.844 109.159 405.662 109.1 405.48 109.035C405.297 108.957 405.115 108.892 404.933 108.84C404.764 108.788 404.575 108.762 404.366 108.762C403.833 108.762 403.396 108.898 403.058 109.172C402.732 109.432 402.472 109.764 402.277 110.168C402.081 110.572 401.945 111.008 401.866 111.477C401.801 111.932 401.769 112.362 401.769 112.766C401.769 112.831 401.769 112.954 401.769 113.137C401.782 113.319 401.788 113.514 401.788 113.723C401.801 113.918 401.808 114.107 401.808 114.289C401.821 114.471 401.834 114.595 401.847 114.66C401.99 114.973 402.127 115.214 402.257 115.383C402.4 115.552 402.55 115.682 402.706 115.773C402.863 115.852 403.032 115.904 403.214 115.93C403.396 115.943 403.611 115.949 403.859 115.949C404.197 115.949 404.49 115.897 404.738 115.793C404.998 115.689 405.239 115.565 405.46 115.422C405.682 115.279 405.89 115.122 406.085 114.953C406.281 114.771 406.482 114.608 406.691 114.465C406.912 114.309 407.146 114.185 407.394 114.094C407.654 113.99 407.947 113.938 408.273 113.938C408.273 114.576 408.156 115.142 407.921 115.637C407.7 116.132 407.381 116.555 406.964 116.906C406.56 117.258 406.079 117.531 405.519 117.727C404.972 117.909 404.373 118 403.722 118C403.11 118 402.557 117.792 402.062 117.375C401.58 116.958 401.163 116.451 400.812 115.852C400.473 115.24 400.213 114.595 400.031 113.918C399.848 113.241 399.757 112.642 399.757 112.121ZM409.366 114.035C409.366 113.228 409.555 112.479 409.933 111.789C410.31 111.086 410.805 110.487 411.417 109.992C412.042 109.484 412.739 109.087 413.507 108.801C414.288 108.514 415.076 108.371 415.87 108.371C416.313 108.371 416.704 108.514 417.042 108.801C417.394 109.087 417.687 109.439 417.921 109.855C418.156 110.259 418.331 110.689 418.448 111.145C418.579 111.6 418.644 111.997 418.644 112.336C418.644 113.065 418.468 113.775 418.116 114.465C417.765 115.142 417.309 115.747 416.749 116.281C416.189 116.802 415.558 117.225 414.855 117.551C414.152 117.876 413.448 118.039 412.745 118.039C412.12 118.039 411.593 117.935 411.163 117.727C410.734 117.505 410.389 117.219 410.128 116.867C409.868 116.503 409.672 116.079 409.542 115.598C409.425 115.103 409.366 114.582 409.366 114.035ZM411.027 114.23C411.027 114.569 411.053 114.868 411.105 115.129C411.17 115.376 411.274 115.591 411.417 115.773C411.573 115.956 411.775 116.099 412.023 116.203C412.27 116.294 412.576 116.34 412.941 116.34C413.422 116.34 413.904 116.21 414.386 115.949C414.868 115.676 415.297 115.337 415.675 114.934C416.066 114.517 416.378 114.061 416.613 113.566C416.847 113.072 416.964 112.59 416.964 112.121C416.964 111.913 416.945 111.685 416.906 111.438C416.866 111.19 416.801 110.962 416.71 110.754C416.619 110.546 416.489 110.37 416.32 110.227C416.15 110.083 415.935 110.012 415.675 110.012C415.441 110.012 415.161 110.09 414.835 110.246C414.523 110.402 414.191 110.604 413.839 110.852C413.501 111.099 413.162 111.379 412.823 111.691C412.498 112.004 412.198 112.316 411.925 112.629C411.652 112.941 411.43 113.241 411.261 113.527C411.105 113.814 411.027 114.048 411.027 114.23ZM412.277 103.215C412.329 102.954 412.413 102.792 412.531 102.727C412.648 102.648 412.778 102.635 412.921 102.688C413.077 102.74 413.24 102.85 413.409 103.02C413.592 103.176 413.774 103.358 413.956 103.566C414.139 103.775 414.314 103.996 414.484 104.23C414.653 104.465 414.803 104.686 414.933 104.895C414.946 104.908 414.972 104.947 415.011 105.012C415.063 105.077 415.109 105.129 415.148 105.168C415.291 105.337 415.356 105.513 415.343 105.695C415.343 105.865 415.297 106.008 415.206 106.125C415.128 106.242 415.004 106.307 414.835 106.32C414.679 106.333 414.529 106.262 414.386 106.105L412.277 103.215ZM419.406 111.418C419.406 111.079 419.49 110.839 419.659 110.695C419.829 110.539 420.102 110.461 420.48 110.461H420.675C420.714 110.669 420.76 110.91 420.812 111.184C420.864 111.457 420.942 111.737 421.046 112.023C421.15 112.31 421.274 112.577 421.417 112.824C421.56 113.059 421.736 113.247 421.945 113.391C421.958 112.935 422.068 112.499 422.277 112.082C422.498 111.652 422.765 111.275 423.077 110.949C423.403 110.611 423.754 110.331 424.132 110.109C424.523 109.875 424.907 109.719 425.284 109.641H425.714C426.339 109.641 426.873 109.784 427.316 110.07C427.758 110.344 428.123 110.708 428.409 111.164C428.709 111.607 428.937 112.115 429.093 112.688C429.249 113.26 429.366 113.846 429.445 114.445C429.536 115.031 429.588 115.604 429.601 116.164C429.627 116.711 429.64 117.18 429.64 117.57H428.214C428.136 116.789 428.038 116.04 427.921 115.324C427.882 115.038 427.83 114.738 427.765 114.426C427.7 114.1 427.628 113.801 427.55 113.527C427.472 113.241 427.387 112.98 427.296 112.746C427.205 112.499 427.101 112.29 426.984 112.121C426.932 112.069 426.86 111.997 426.769 111.906C426.691 111.815 426.606 111.724 426.515 111.633C426.424 111.542 426.339 111.464 426.261 111.398C426.183 111.333 426.137 111.301 426.124 111.301C425.734 111.197 425.395 111.275 425.109 111.535C424.822 111.783 424.568 112.121 424.347 112.551C424.126 112.98 423.943 113.469 423.8 114.016C423.67 114.562 423.559 115.09 423.468 115.598C423.377 116.092 423.312 116.529 423.273 116.906C423.234 117.271 423.208 117.492 423.195 117.57C422.869 117.805 422.563 117.876 422.277 117.785C421.99 117.681 421.717 117.473 421.456 117.16C421.209 116.848 420.981 116.457 420.773 115.988C420.577 115.52 420.395 115.025 420.226 114.504C420.057 113.97 419.9 113.436 419.757 112.902C419.627 112.368 419.51 111.874 419.406 111.418ZM442.667 117.16C442.264 115.988 441.879 114.895 441.515 113.879C441.163 112.85 440.851 111.848 440.577 110.871C440.317 109.882 440.109 108.879 439.952 107.863C439.796 106.848 439.718 105.76 439.718 104.602C439.718 104.51 439.718 104.348 439.718 104.113C439.731 103.866 439.738 103.612 439.738 103.352C439.738 103.091 439.738 102.844 439.738 102.609C439.751 102.362 439.757 102.193 439.757 102.102C439.874 101.841 440.076 101.6 440.363 101.379C440.662 101.158 440.962 101.047 441.261 101.047C441.261 102.01 441.274 103.039 441.3 104.133C441.326 105.214 441.404 106.294 441.534 107.375C441.678 108.456 441.899 109.517 442.198 110.559C442.511 111.587 442.947 112.531 443.507 113.391C443.52 113.078 443.533 112.733 443.546 112.355C443.559 111.978 443.592 111.6 443.644 111.223C443.709 110.845 443.807 110.48 443.937 110.129C444.067 109.777 444.256 109.465 444.503 109.191C444.764 108.918 445.096 108.703 445.499 108.547C445.916 108.391 446.437 108.319 447.062 108.332C447.622 108.332 448.123 108.436 448.566 108.645C449.021 108.853 449.399 109.139 449.698 109.504C450.011 109.855 450.245 110.272 450.402 110.754C450.571 111.223 450.656 111.724 450.656 112.258C450.656 112.974 450.48 113.677 450.128 114.367C449.777 115.057 449.308 115.676 448.722 116.223C448.149 116.77 447.504 117.212 446.788 117.551C446.072 117.876 445.343 118.039 444.601 118.039C444.223 118.039 443.859 117.974 443.507 117.844C443.156 117.701 442.876 117.473 442.667 117.16ZM447.296 110.031C447.036 110.174 446.762 110.344 446.476 110.539C446.189 110.734 445.922 111.04 445.675 111.457C445.441 111.861 445.239 112.414 445.07 113.117C444.9 113.82 444.796 114.751 444.757 115.91C444.783 115.91 444.848 115.917 444.952 115.93C445.07 115.943 445.148 115.949 445.187 115.949C445.538 115.949 445.935 115.839 446.378 115.617C446.834 115.396 447.27 115.122 447.687 114.797C448.116 114.471 448.488 114.113 448.8 113.723C449.113 113.319 449.301 112.935 449.366 112.57C449.406 112.349 449.36 112.095 449.23 111.809C449.1 111.522 448.924 111.249 448.702 110.988C448.494 110.715 448.26 110.487 447.999 110.305C447.752 110.122 447.517 110.031 447.296 110.031ZM457.216 107.1C458.523 107.1 459.49 107.387 460.116 107.96C460.743 108.533 461.056 109.447 461.056 110.7V118H459.776L459.436 116.48H459.356C459.05 116.867 458.73 117.193 458.396 117.46C458.076 117.713 457.703 117.9 457.276 118.02C456.863 118.14 456.356 118.2 455.756 118.2C455.116 118.2 454.536 118.087 454.016 117.86C453.51 117.633 453.11 117.287 452.816 116.82C452.523 116.34 452.376 115.74 452.376 115.02C452.376 113.953 452.796 113.133 453.636 112.56C454.476 111.973 455.77 111.653 457.516 111.6L459.336 111.54V110.9C459.336 110.007 459.143 109.387 458.756 109.04C458.37 108.693 457.823 108.52 457.116 108.52C456.556 108.52 456.023 108.607 455.516 108.78C455.01 108.94 454.536 109.127 454.096 109.34L453.556 108.02C454.023 107.767 454.576 107.553 455.216 107.38C455.856 107.193 456.523 107.1 457.216 107.1ZM457.736 112.82C456.403 112.873 455.476 113.087 454.956 113.46C454.45 113.833 454.196 114.36 454.196 115.04C454.196 115.64 454.376 116.08 454.736 116.36C455.11 116.64 455.583 116.78 456.156 116.78C457.063 116.78 457.816 116.533 458.416 116.04C459.016 115.533 459.316 114.76 459.316 113.72V112.76L457.736 112.82ZM457.056 121.52C456.776 121.52 456.53 121.427 456.316 121.24C456.116 121.053 456.016 120.773 456.016 120.4C456.016 120.013 456.116 119.727 456.316 119.54C456.53 119.367 456.776 119.28 457.056 119.28C457.336 119.28 457.576 119.367 457.776 119.54C457.99 119.727 458.096 120.013 458.096 120.4C458.096 120.773 457.99 121.053 457.776 121.24C457.576 121.427 457.336 121.52 457.056 121.52ZM463.058 111.418C463.058 111.079 463.142 110.839 463.312 110.695C463.481 110.539 463.754 110.461 464.132 110.461H464.327C464.366 110.669 464.412 110.91 464.464 111.184C464.516 111.457 464.594 111.737 464.698 112.023C464.803 112.31 464.926 112.577 465.07 112.824C465.213 113.059 465.389 113.247 465.597 113.391C465.61 112.935 465.721 112.499 465.929 112.082C466.15 111.652 466.417 111.275 466.73 110.949C467.055 110.611 467.407 110.331 467.784 110.109C468.175 109.875 468.559 109.719 468.937 109.641H469.366C469.991 109.641 470.525 109.784 470.968 110.07C471.411 110.344 471.775 110.708 472.062 111.164C472.361 111.607 472.589 112.115 472.745 112.688C472.902 113.26 473.019 113.846 473.097 114.445C473.188 115.031 473.24 115.604 473.253 116.164C473.279 116.711 473.292 117.18 473.292 117.57H471.866C471.788 116.789 471.691 116.04 471.573 115.324C471.534 115.038 471.482 114.738 471.417 114.426C471.352 114.1 471.281 113.801 471.202 113.527C471.124 113.241 471.04 112.98 470.948 112.746C470.857 112.499 470.753 112.29 470.636 112.121C470.584 112.069 470.512 111.997 470.421 111.906C470.343 111.815 470.258 111.724 470.167 111.633C470.076 111.542 469.991 111.464 469.913 111.398C469.835 111.333 469.79 111.301 469.777 111.301C469.386 111.197 469.047 111.275 468.761 111.535C468.475 111.783 468.221 112.121 467.999 112.551C467.778 112.98 467.596 113.469 467.452 114.016C467.322 114.562 467.212 115.09 467.12 115.598C467.029 116.092 466.964 116.529 466.925 116.906C466.886 117.271 466.86 117.492 466.847 117.57C466.521 117.805 466.215 117.876 465.929 117.785C465.642 117.681 465.369 117.473 465.109 117.16C464.861 116.848 464.633 116.457 464.425 115.988C464.23 115.52 464.047 115.025 463.878 114.504C463.709 113.97 463.553 113.436 463.409 112.902C463.279 112.368 463.162 111.874 463.058 111.418ZM482.941 108.156C482.941 108.117 482.947 108.085 482.96 108.059C482.96 108.033 482.967 108 482.98 107.961C483.032 107.896 483.11 107.811 483.214 107.707C483.318 107.603 483.383 107.551 483.409 107.551H487.335C487.335 107.408 487.316 107.18 487.277 106.867C487.238 106.555 487.198 106.21 487.159 105.832C487.133 105.454 487.127 105.064 487.14 104.66C487.153 104.243 487.205 103.872 487.296 103.547C487.4 103.208 487.557 102.935 487.765 102.727C487.986 102.505 488.292 102.395 488.683 102.395C488.683 103.71 488.774 104.764 488.956 105.559C489.139 106.353 489.379 106.965 489.679 107.395C489.991 107.824 490.343 108.104 490.734 108.234C491.124 108.365 491.521 108.423 491.925 108.41C492.342 108.384 492.745 108.319 493.136 108.215C493.527 108.111 493.872 108.039 494.171 108C494.484 107.961 494.731 107.993 494.913 108.098C495.096 108.189 495.187 108.417 495.187 108.781C495.187 109.055 495.122 109.25 494.991 109.367C494.874 109.484 494.64 109.576 494.288 109.641C494.184 109.654 494.008 109.68 493.761 109.719C493.527 109.745 493.26 109.771 492.96 109.797C492.661 109.823 492.342 109.855 492.003 109.895C491.665 109.921 491.346 109.947 491.046 109.973C490.747 109.999 490.473 110.018 490.226 110.031C489.978 110.031 489.796 110.031 489.679 110.031C489.679 110.096 489.672 110.207 489.659 110.363C489.646 110.52 489.64 110.624 489.64 110.676C489.64 111.249 489.731 111.809 489.913 112.355C490.096 112.889 490.291 113.423 490.499 113.957C490.721 114.491 490.922 115.025 491.105 115.559C491.287 116.092 491.378 116.646 491.378 117.219C491.378 117.323 491.365 117.434 491.339 117.551C491.326 117.655 491.287 117.753 491.222 117.844C491.17 117.922 491.085 117.98 490.968 118.02C490.864 118.072 490.714 118.065 490.519 118C490.024 117.87 489.653 117.59 489.406 117.16C489.171 116.73 488.995 116.223 488.878 115.637C488.761 115.038 488.683 114.406 488.644 113.742C488.605 113.078 488.54 112.46 488.448 111.887C488.37 111.301 488.24 110.806 488.058 110.402C487.876 109.986 487.583 109.732 487.179 109.641L483.409 108.781C483.357 108.781 483.279 108.729 483.175 108.625C483.071 108.508 483.006 108.423 482.98 108.371C482.967 108.345 482.96 108.312 482.96 108.273C482.947 108.247 482.941 108.208 482.941 108.156ZM496.495 105.305C496.495 105.161 496.508 104.986 496.534 104.777C496.573 104.556 496.632 104.348 496.71 104.152C496.801 103.957 496.912 103.794 497.042 103.664C497.172 103.521 497.342 103.449 497.55 103.449C497.563 103.449 497.596 103.456 497.648 103.469C497.7 103.482 497.732 103.488 497.745 103.488C497.967 104.296 498.097 105.096 498.136 105.891C498.175 106.685 498.162 107.46 498.097 108.215C498.032 108.957 497.934 109.68 497.804 110.383C497.674 111.073 497.563 111.711 497.472 112.297C497.394 112.883 497.342 113.41 497.316 113.879C497.303 114.348 497.374 114.745 497.531 115.07C497.504 114.862 497.485 114.615 497.472 114.328C497.472 114.029 497.498 113.723 497.55 113.41C497.615 113.098 497.713 112.785 497.843 112.473C497.986 112.16 498.188 111.88 498.448 111.633C498.709 111.385 499.041 111.19 499.445 111.047C499.861 110.904 500.376 110.832 500.988 110.832C501.626 110.832 502.172 110.943 502.628 111.164C503.097 111.385 503.481 111.691 503.781 112.082C504.08 112.46 504.301 112.909 504.445 113.43C504.601 113.938 504.679 114.484 504.679 115.07C504.679 115.344 504.672 115.656 504.659 116.008C504.659 116.346 504.614 116.665 504.523 116.965C504.445 117.251 504.295 117.499 504.073 117.707C503.865 117.902 503.553 118 503.136 118C503.136 117.792 503.149 117.512 503.175 117.16C503.201 116.796 503.214 116.411 503.214 116.008C503.227 115.604 503.214 115.194 503.175 114.777C503.149 114.361 503.064 113.99 502.921 113.664C502.778 113.326 502.576 113.052 502.316 112.844C502.068 112.622 501.723 112.512 501.281 112.512C501.124 112.512 500.929 112.525 500.695 112.551C500.473 112.564 500.245 112.622 500.011 112.727C499.777 112.831 499.549 112.993 499.327 113.215C499.106 113.423 498.93 113.716 498.8 114.094C498.67 114.458 498.592 114.927 498.566 115.5C498.553 116.06 498.624 116.75 498.781 117.57C498.689 117.805 498.572 117.941 498.429 117.98C498.299 118.02 498.129 118.039 497.921 118.039C497.504 118.039 497.159 117.896 496.886 117.609C496.626 117.31 496.424 116.913 496.281 116.418C496.137 115.923 496.04 115.35 495.988 114.699C495.948 114.048 495.935 113.371 495.948 112.668C495.962 111.952 495.994 111.229 496.046 110.5C496.111 109.758 496.17 109.061 496.222 108.41C496.287 107.746 496.346 107.147 496.398 106.613C496.463 106.066 496.495 105.63 496.495 105.305ZM506.281 110.676C506.281 110.598 506.281 110.474 506.281 110.305C506.294 110.122 506.3 109.934 506.3 109.738C506.313 109.543 506.32 109.354 506.32 109.172C506.333 108.99 506.339 108.859 506.339 108.781C506.482 108.573 506.665 108.404 506.886 108.273C507.12 108.143 507.355 108.039 507.589 107.961C507.628 108.664 507.739 109.413 507.921 110.207C508.103 111.001 508.299 111.802 508.507 112.609C508.715 113.404 508.898 114.191 509.054 114.973C509.223 115.754 509.308 116.483 509.308 117.16C509.308 117.746 509.008 118.039 508.409 118.039C508.045 118.039 507.739 117.889 507.491 117.59C507.244 117.29 507.042 116.913 506.886 116.457C506.743 115.988 506.626 115.474 506.534 114.914C506.443 114.341 506.378 113.781 506.339 113.234C506.313 112.688 506.294 112.186 506.281 111.73C506.281 111.275 506.281 110.923 506.281 110.676ZM505.675 103.215C505.714 102.954 505.792 102.792 505.909 102.727C506.027 102.648 506.163 102.635 506.32 102.688C506.476 102.74 506.639 102.85 506.808 103.02C506.99 103.176 507.166 103.358 507.335 103.566C507.517 103.775 507.693 103.996 507.863 104.23C508.032 104.465 508.182 104.686 508.312 104.895C508.325 104.908 508.357 104.947 508.409 105.012C508.462 105.077 508.501 105.129 508.527 105.168C508.67 105.337 508.735 105.513 508.722 105.695C508.722 105.865 508.676 106.008 508.585 106.125C508.507 106.242 508.383 106.307 508.214 106.32C508.058 106.333 507.908 106.262 507.765 106.105L505.675 103.215ZM522.823 117.121C523.032 116.978 523.279 116.796 523.566 116.574C523.865 116.34 524.165 116.092 524.464 115.832C524.764 115.572 525.044 115.298 525.304 115.012C525.564 114.725 525.766 114.452 525.909 114.191C526.066 113.918 526.144 113.664 526.144 113.43C526.144 113.195 526.027 113 525.792 112.844C525.376 112.844 524.92 112.863 524.425 112.902C523.93 112.928 523.435 112.941 522.941 112.941C522.446 112.928 521.964 112.883 521.495 112.805C521.04 112.727 520.629 112.583 520.265 112.375C519.9 112.167 519.607 111.874 519.386 111.496C519.178 111.105 519.073 110.611 519.073 110.012C519.073 109.309 519.204 108.677 519.464 108.117C519.738 107.544 520.096 107.043 520.538 106.613C520.981 106.171 521.476 105.786 522.023 105.461C522.583 105.122 523.142 104.836 523.702 104.602C524.041 104.693 524.353 104.855 524.64 105.09C524.926 105.324 525.174 105.585 525.382 105.871C525.291 106.158 525.109 106.379 524.835 106.535C524.575 106.691 524.269 106.828 523.917 106.945C523.579 107.062 523.221 107.186 522.843 107.316C522.465 107.447 522.12 107.622 521.808 107.844C521.508 108.052 521.254 108.332 521.046 108.684C520.838 109.022 520.734 109.471 520.734 110.031C520.734 110.448 520.838 110.754 521.046 110.949C521.254 111.145 521.528 111.281 521.866 111.359C522.205 111.424 522.589 111.451 523.019 111.438C523.448 111.411 523.885 111.379 524.327 111.34C524.783 111.301 525.226 111.281 525.656 111.281C526.085 111.268 526.469 111.32 526.808 111.438C527.146 111.542 527.413 111.717 527.609 111.965C527.817 112.212 527.921 112.577 527.921 113.059C527.921 113.267 527.85 113.534 527.706 113.859C527.576 114.185 527.394 114.536 527.159 114.914C526.938 115.279 526.671 115.643 526.359 116.008C526.059 116.372 525.74 116.704 525.402 117.004C525.076 117.29 524.744 117.531 524.406 117.727C524.08 117.909 523.774 118 523.488 118C523.214 118 523.032 117.902 522.941 117.707C522.863 117.512 522.823 117.316 522.823 117.121ZM537.101 115.48C536.606 115.819 536.176 116.125 535.812 116.398C535.46 116.659 535.115 116.88 534.777 117.062C534.438 117.245 534.073 117.382 533.683 117.473C533.305 117.564 532.837 117.609 532.277 117.609C531.066 117.609 530.167 117.29 529.581 116.652C528.995 116.001 528.702 115.038 528.702 113.762C528.702 113.267 528.767 112.753 528.898 112.219C529.028 111.685 529.217 111.158 529.464 110.637C529.725 110.103 530.031 109.602 530.382 109.133C530.734 108.651 531.131 108.228 531.573 107.863C532.016 107.499 532.485 107.212 532.98 107.004C533.488 106.783 534.021 106.672 534.581 106.672C535.519 106.763 536.254 106.997 536.788 107.375C537.322 107.74 537.726 108.215 537.999 108.801C538.273 109.374 538.462 110.018 538.566 110.734C538.67 111.438 538.748 112.167 538.8 112.922C538.865 113.677 538.943 114.432 539.034 115.188C539.126 115.943 539.314 116.639 539.601 117.277C539.432 117.707 539.269 118.007 539.113 118.176C538.969 118.358 538.807 118.391 538.624 118.273C538.442 118.156 538.227 117.87 537.98 117.414C537.745 116.958 537.452 116.314 537.101 115.48ZM530.363 113.801C530.363 114.543 530.499 115.09 530.773 115.441C531.059 115.78 531.56 115.949 532.277 115.949C532.81 115.949 533.318 115.858 533.8 115.676C534.295 115.48 534.725 115.22 535.089 114.895C535.454 114.556 535.747 114.152 535.968 113.684C536.189 113.215 536.3 112.694 536.3 112.121C536.3 111.887 536.307 111.561 536.32 111.145C536.333 110.715 536.307 110.292 536.241 109.875C536.176 109.458 536.053 109.1 535.87 108.801C535.688 108.488 535.415 108.332 535.05 108.332C534.373 108.332 533.748 108.508 533.175 108.859C532.602 109.198 532.107 109.634 531.691 110.168C531.274 110.702 530.948 111.294 530.714 111.945C530.48 112.583 530.363 113.202 530.363 113.801ZM540.831 114.035C540.831 113.228 541.02 112.479 541.398 111.789C541.775 111.086 542.27 110.487 542.882 109.992C543.507 109.484 544.204 109.087 544.972 108.801C545.753 108.514 546.541 108.371 547.335 108.371C547.778 108.371 548.169 108.514 548.507 108.801C548.859 109.087 549.152 109.439 549.386 109.855C549.62 110.259 549.796 110.689 549.913 111.145C550.044 111.6 550.109 111.997 550.109 112.336C550.109 113.065 549.933 113.775 549.581 114.465C549.23 115.142 548.774 115.747 548.214 116.281C547.654 116.802 547.023 117.225 546.32 117.551C545.616 117.876 544.913 118.039 544.21 118.039C543.585 118.039 543.058 117.935 542.628 117.727C542.198 117.505 541.853 117.219 541.593 116.867C541.333 116.503 541.137 116.079 541.007 115.598C540.89 115.103 540.831 114.582 540.831 114.035ZM542.491 114.23C542.491 114.569 542.517 114.868 542.57 115.129C542.635 115.376 542.739 115.591 542.882 115.773C543.038 115.956 543.24 116.099 543.488 116.203C543.735 116.294 544.041 116.34 544.406 116.34C544.887 116.34 545.369 116.21 545.851 115.949C546.333 115.676 546.762 115.337 547.14 114.934C547.531 114.517 547.843 114.061 548.077 113.566C548.312 113.072 548.429 112.59 548.429 112.121C548.429 111.913 548.409 111.685 548.37 111.438C548.331 111.19 548.266 110.962 548.175 110.754C548.084 110.546 547.954 110.37 547.784 110.227C547.615 110.083 547.4 110.012 547.14 110.012C546.906 110.012 546.626 110.09 546.3 110.246C545.988 110.402 545.656 110.604 545.304 110.852C544.965 111.099 544.627 111.379 544.288 111.691C543.963 112.004 543.663 112.316 543.39 112.629C543.116 112.941 542.895 113.241 542.726 113.527C542.57 113.814 542.491 114.048 542.491 114.23ZM554.249 117.16C554.249 117.004 554.308 116.828 554.425 116.633C554.542 116.438 554.679 116.255 554.835 116.086C555.004 115.917 555.18 115.773 555.363 115.656C555.558 115.539 555.74 115.48 555.909 115.48C555.935 115.48 556.001 115.539 556.105 115.656C556.222 115.76 556.307 115.845 556.359 115.91C556.385 115.949 556.417 116.014 556.456 116.105C556.508 116.184 556.554 116.268 556.593 116.359C556.645 116.451 556.684 116.535 556.71 116.613C556.736 116.678 556.749 116.717 556.749 116.73C556.749 116.978 556.717 117.167 556.652 117.297C556.587 117.414 556.502 117.499 556.398 117.551C556.294 117.59 556.17 117.609 556.027 117.609C555.896 117.609 555.753 117.609 555.597 117.609C555.545 117.609 555.447 117.616 555.304 117.629C555.161 117.629 555.004 117.622 554.835 117.609C554.679 117.583 554.542 117.544 554.425 117.492C554.308 117.427 554.249 117.316 554.249 117.16ZM552.941 109.602C552.941 109.133 553.032 108.697 553.214 108.293C553.409 107.876 553.611 107.473 553.82 107.082C554.041 106.691 554.243 106.294 554.425 105.891C554.62 105.474 554.718 105.031 554.718 104.562C554.718 104.393 554.666 104.237 554.562 104.094C554.471 103.938 554.353 103.807 554.21 103.703C554.067 103.586 553.904 103.495 553.722 103.43C553.54 103.365 553.364 103.332 553.195 103.332C552.947 103.332 552.713 103.397 552.491 103.527C552.283 103.658 552.088 103.814 551.906 103.996C551.723 104.165 551.547 104.348 551.378 104.543C551.222 104.738 551.066 104.901 550.909 105.031C550.883 105.057 550.792 105.083 550.636 105.109C550.493 105.135 550.402 105.148 550.363 105.148C550.363 104.641 550.428 104.172 550.558 103.742C550.701 103.312 550.909 102.941 551.183 102.629C551.456 102.316 551.795 102.076 552.198 101.906C552.615 101.724 553.084 101.633 553.605 101.633C553.969 101.633 554.34 101.717 554.718 101.887C555.109 102.056 555.454 102.284 555.753 102.57C556.053 102.844 556.3 103.156 556.495 103.508C556.691 103.859 556.788 104.224 556.788 104.602C556.788 105.07 556.723 105.5 556.593 105.891C556.476 106.268 556.333 106.626 556.163 106.965C555.994 107.29 555.818 107.609 555.636 107.922C555.454 108.234 555.297 108.56 555.167 108.898C555.037 109.237 554.959 109.602 554.933 109.992C554.907 110.37 554.959 110.806 555.089 111.301C555.063 111.34 555.011 111.385 554.933 111.438C554.855 111.477 554.77 111.516 554.679 111.555C554.601 111.594 554.516 111.633 554.425 111.672C554.347 111.711 554.288 111.73 554.249 111.73C553.963 111.73 553.735 111.659 553.566 111.516C553.396 111.359 553.26 111.177 553.156 110.969C553.064 110.747 553.006 110.513 552.98 110.266C552.954 110.018 552.941 109.797 552.941 109.602Z" fill="black"/>
</svg>
